<svg xmlns="http://www.w3.org/2000/svg" viewBox="0 0 1280 183"><defs><style>.cls-2{fill:#fff}.cls-4{fill:#e6efff}.cls-5{fill:#ca6740}.cls-6{fill:#ffd61d}.cls-8{fill:#00c1a0}.cls-9{fill:#006}.cls-10{fill:#007a65}.cls-11{fill:#6b2e02}.cls-12{fill:#ffeacf}.cls-13{fill:#ff8983}.cls-14{fill:#92431a}.cls-15,.cls-20{fill:#a4c5ff}.cls-16{fill:#dde6ff}.cls-17,.cls-20{mix-blend-mode:multiply}.cls-18{fill:#590000}.cls-19{fill:#e8a800}.cls-21{fill:#00bae5}.cls-22{fill:#ffbfbd}.cls-23{fill:#ff4e45}.cls-24{fill:none}.cls-25{fill:#720000}.cls-26{fill:#ffc7a1}.cls-29{fill:#c00}.cls-31{fill:#0092bf}.cls-33{fill:#d69000}.cls-34{fill:#ffac73}</style></defs><g style="isolation:isolate"><g id="Layer_1" data-name="Layer 1"><path class="cls-2" d="M897.4 59.8a.7.7 0 0 0-.93.35l-1.68 3.71c.06.12.11.25.17.38.21.43.42.86.63 1.27l2.16-4.78a.7.7 0 0 0-.35-.93Z"/><path d="M42.5 110.3c0-.06-.68-1.6-4.24-8.86-1.56-3.19-3.26-4.82-4.66-5.63l7.93-3a.94.94 0 1 0-.67-1.76l-21.29 8a1 1 0 0 0-.6.75c0 .18-.62 4.5 2.9 6.12a.93.93 0 0 0 .4.09.83.83 0 0 0 .34-.07l7.11-2.75c.26.42.51.88.77 1.4 3.51 7.16 4.18 8.74 4.19 8.76a.93.93 0 0 0 .87.57.92.92 0 0 0 .36-.07 1 1 0 0 0 .51-1.24c0-.06-.68-1.6-4.24-8.85-1.59-3.24-3.27-4.87-4.72-5.67l2.84-1.07c.13 0 3.15-1.09 6.25 5.23 3.51 7.16 4.19 8.74 4.19 8.75a1 1 0 0 0 .87.58.94.94 0 0 0 .37-.07 1 1 0 0 0 .52-1.21ZM24.24 99.4c.1 0 2-.69 4.39 2.23l-6.3 2.44a3.88 3.88 0 0 1-1.53-3.42l3.2-1.2a.86.86 0 0 0 .24-.05Z" style="fill:#caddff"/><path class="cls-4" d="m74.71 62.06 43.71 46.71-12.51 24.73L12 137.38l62.71-75.32z"/><path class="cls-5" d="M53.5 59.46s8 5.95 8.13 11.17a5.71 5.71 0 0 1-4.13 5.74l2.09 5.23-3.55 3-4.75-.6-2.55-6.7-4.17-12.84Z"/><path class="cls-6" d="M51.08 83.15s5.48 2.66 8.31-2.48c0 0 13.87-5.14 21.41 5.65L79 73.65l15.41-2.83s6.59 19.53 4.28 30.06c-2.41 11-18 4.45-18 4.45l2.83 8.82-35 12.08s-10.55 7-15.24-3.09c-4.62-9.93 7.11-31.25 7.11-31.25S43.8 85 51.08 83.15Z"/><path d="m91.36 71.38-6.89 1.26-5.31 2.16.2 1.44 12-4.86zm-23.72 8.08L41.52 90a15.54 15.54 0 0 0-1.14 1.85l-.11.19 30.36-12.3a19.63 19.63 0 0 0-2.99-.28Zm12.55 2.59 15.69-6.35-.39-1.37L80 80.61Zm-3.77 0L37.49 97.82c-.26.59-.53 1.21-.8 1.85L77.77 83a15.39 15.39 0 0 0-1.35-.95Zm20.45-2.53-16.11 6.53v.27l-.17-.22-45.81 18.57c-.2.58-.39 1.17-.58 1.76l63-25.52c-.11-.47-.2-.91-.33-1.39ZM98.05 85l-65.16 26.4c-.12.56-.22 1.11-.31 1.66L98.3 86.43c-.08-.43-.17-.95-.25-1.43Zm.85 5.71-66.71 27c0 .51 0 1 .09 1.49L99 92.18c0-.49 0-.98-.1-1.47Zm.27 5.56L33.21 123l.06.14c.19.41.39.77.59 1.12l65.25-26.43c.03-.51.06-1.03.06-1.56ZM36.9 127.49a8.23 8.23 0 0 0 1.82.79l43.67-17.69-.39-1.36Zm53.77-20.26 6.1-2.47a7.32 7.32 0 0 0 1.34-2.07l-10.82 4.38a18.11 18.11 0 0 0 3.38.16Z" style="fill:#fff3c0"/><path class="cls-8" d="m306.63 75.85-33.01 52.39 57.13 30.64 28.48-47.96-52.6-35.07z"/><path class="cls-9" d="m322.75 136.23-17-13.22c-5.23-9.16-12.89-17.35-15.92-20.43l-16.18 25.68 39.86 21.38c8.49-7.89 9.24-13.41 9.24-13.41Z"/><path d="M45.52 65a14.37 14.37 0 0 1 1.63-.49c2.76-1 6.16-2.56 7-5.63.61-2.1-.15-3.74-1.57-4.42-2.45-1.17-4.5.68-6.29 1.76-3 1.84-6 1.09-8.86 5-1.45 2-1.11 5.31.59 7.37a11.26 11.26 0 0 0 3.81 3.24c.81-.1 1.45-1 2-1.57A7.53 7.53 0 0 0 45 68.2a19.47 19.47 0 0 0 .52-3.2Z"/><path class="cls-8" d="M53.28 68.77a6.37 6.37 0 0 0-6.85-3.37 8.91 8.91 0 0 1 .09-9.24c0-.91-2.59.05-3.3.61a2.82 2.82 0 0 0-.64.91c-2 4 0 8.49.62 9.65a6.44 6.44 0 0 0-.64 7.15 6.08 6.08 0 1 0 10.72-5.71Z"/><path class="cls-10" d="M49 74.85a.48.48 0 0 1-.39-.21.48.48 0 0 1 .09-.64 2.81 2.81 0 0 0 1-2.92 2.59 2.59 0 0 0-2.1-2.14.47.47 0 0 1 .11-.93 3.51 3.51 0 0 1 2.91 2.88 3.76 3.76 0 0 1-1.4 3.89.43.43 0 0 1-.22.07Z"/><path class="cls-11" d="M55 68.79a3.79 3.79 0 0 1-.94-.12.47.47 0 1 1 .23-.91 2.72 2.72 0 0 0 1.92-.21 1.9 1.9 0 0 0 1-1.48.48.48 0 0 1 .95.07 2.88 2.88 0 0 1-1.49 2.24 3.47 3.47 0 0 1-1.67.41Z"/><circle class="cls-11" cx="53.87" cy="62.84" r=".75"/><circle class="cls-11" cx="51.5" cy="64.76" r=".75"/><path class="cls-11" d="M56 76.83a6.06 6.06 0 0 1-.76 0 .47.47 0 0 1-.39-.54.47.47 0 0 1 .54-.39 5.46 5.46 0 0 0 1.82-.09.47.47 0 0 1 .56.36.48.48 0 0 1-.37.56 6.81 6.81 0 0 1-1.4.1Z"/><path class="cls-9" d="M112.85 119.78a62.11 62.11 0 0 0-7.74-7.73 22.58 22.58 0 0 0-10.63-5A9.22 9.22 0 0 0 92 107a13.71 13.71 0 0 0-9.45 5l-.48-.21c-12.09-3.48-25.62 8.47-25.62 8.47 17.46-4.58 25.89 11.1 27.32 14.11l22.12-.92Z"/><path class="cls-4" d="M84.25 111.3v.94c.1 0 10.07.83 21.72 21.22l.52-1c-11.85-20.4-21.8-21.14-22.24-21.16Z"/><path class="cls-12" d="m89.11 141.42 5.07 33.44 117.44-23.77s-7.92-31.22-27.1-27.26c0 0-3.17 0-12.68 5.86s-15.37 5.87-23.93 1.59-17.12-6-27.58 2.38c-12.14 9.74-14.9 9.34-31.22 7.76Z"/><path class="cls-13" d="M145.87 153.32a10.22 10.22 0 0 1 1-2.93c1-1.8 2-3.45 3.86-4 2.48-.67 3.92-.93 5.63-2.19a7.81 7.81 0 0 0 2.52-3.26 2.57 2.57 0 0 0-.24-2.24c-.46-.49-1.32-.36-2-.23a25.61 25.61 0 0 1-2.76.61c-1.36.15-2.5.4-3.63-.38a13.85 13.85 0 0 0-2.06-1.44 7.43 7.43 0 0 0-5.85-.05 2.61 2.61 0 0 1-.33.13s-.14-.25-.24-.4a4.43 4.43 0 0 0-4-2.29 8.66 8.66 0 0 0-4.56 2 15.55 15.55 0 0 0-2.89 2.3 1.17 1.17 0 0 0 0 1.71 4.68 4.68 0 0 0 2.3.22c1.81-.12 3.39-.49 5.2-.65a1.59 1.59 0 0 1 1.45.49.51.51 0 0 1 .06.49 25.69 25.69 0 0 1-1.68 3.41 10.16 10.16 0 0 1-1.29 1.63 12.67 12.67 0 0 1-5.89 2.93c-6 1.43-10.77 3.92-14.36 8.57a12.16 12.16 0 0 1-4.51-12.3c.27-1.07 0-1.53-.54-1.76-.93-.4-1.94 1-2.37 2a15.8 15.8 0 0 0-.3 8.63 18.15 18.15 0 0 0 3.88 7.18l32.78-4.06a24.56 24.56 0 0 0 .82-4.12Z"/><path class="cls-14" d="M343.43 94.57a10.35 10.35 0 0 0-6.53 4.3c-2.84 3.87.49 5.78.49 5.78l-2.07 1.58 5.66 4.63 3.32-3.54s2.57 2.34 4.91-.06-.55-4.52-.55-4.52l-.92-5.07Z"/><path class="cls-15" d="M299.12 59.76a.46.46 0 0 1-.39-.21l-8-11.87a.47.47 0 1 1 .78-.53l8 11.87a.48.48 0 0 1-.13.66.5.5 0 0 1-.26.08Zm6.82-3.12a.48.48 0 0 1-.47-.42l-2.19-20a.47.47 0 0 1 .94-.1l2.19 20a.47.47 0 0 1-.42.52Zm7.17 2.77h-.18a.47.47 0 0 1-.26-.61l5.54-13.8a.47.47 0 1 1 .87.35l-5.54 13.8a.46.46 0 0 1-.43.26Z"/><path class="cls-16" d="M303 21.56c-.13-.57-4-10.72-4.19-11.15a.39.39 0 0 0-.23-.24.47.47 0 0 0-.33 0l-10.47 4.55a.42.42 0 0 0-.23.54c1.07 2.7 2.53 6.4 3.32 8.43a3.61 3.61 0 0 0-1-.24 3.25 3.25 0 0 0-1.94.37 1.76 1.76 0 0 0-.91 1.79 2.32 2.32 0 0 0 1.61 1.55 3.32 3.32 0 0 0 2.24.09 2.06 2.06 0 0 0 1.21-1.07c.43-.9-.09-1.87-.42-2.71s-1.83-4.68-2.23-5.68l9.65-4.22 2.55 6.81a3.61 3.61 0 0 0-1-.24 3.25 3.25 0 0 0-1.94.37 1.79 1.79 0 0 0-.91 1.79 2.32 2.32 0 0 0 1.61 1.55 3.32 3.32 0 0 0 2.24.09 2.12 2.12 0 0 0 1.31-1.29 2 2 0 0 0 .06-1.09Zm27.19 27.18c.13-.57 4-10.72 4.18-11.16a.43.43 0 0 1 .23-.23.38.38 0 0 1 .33 0l10.48 4.55a.43.43 0 0 1 .22.54c-1.07 2.7-2.52 6.39-3.32 8.43a3.72 3.72 0 0 1 1-.25 3.33 3.33 0 0 1 1.94.37 1.79 1.79 0 0 1 .92 1.8 2.32 2.32 0 0 1-1.61 1.55 3.35 3.35 0 0 1-2.25.09 2.09 2.09 0 0 1-1.21-1.07c-.42-.9.1-1.87.43-2.72s1.81-4.64 2.2-5.64l-9.65-4.22-2.55 6.81a3.72 3.72 0 0 1 1-.25 3.33 3.33 0 0 1 1.94.37 1.79 1.79 0 0 1 .92 1.8 2.34 2.34 0 0 1-1.63 1.49 3.41 3.41 0 0 1-2.25.09 2.17 2.17 0 0 1-1.31-1.29 2 2 0 0 1-.01-1.06Zm-1.52-26.91L325.45 20a.42.42 0 0 0-.58.12l-4.25 6.73a2.8 2.8 0 0 0-2.62-1.18 1.55 1.55 0 0 0-.72 2.8 2.51 2.51 0 0 0 1.76.63 2.19 2.19 0 0 0 1.83-1.1c.7-1.15 2.73-4.33 3.08-4.88l2.89 1.63a.42.42 0 0 0 .58-.1l1.36-2.23a.38.38 0 0 0 .07-.31.39.39 0 0 0-.18-.28Z"/><path class="cls-14" d="M317.81 80.7a6.6 6.6 0 0 1 4.76-2.7 5.77 5.77 0 0 1 5.77 3 38.59 38.59 0 0 1 4.22-1.72c1.18-.3 3-.39 3.63.73a2.33 2.33 0 0 1-1.48 3.31l-.91.45a3.14 3.14 0 0 1 2 4 2.88 2.88 0 0 1-.89 1.67 1.79 1.79 0 0 1-2.56-.47 2 2 0 0 1-.24-1c0-.13-.26-.13-.26-.13l-1.93 1.85Z"/><g class="cls-17"><path class="cls-14" d="M339.26 100.36a.49.49 0 0 1-.42-.24.47.47 0 0 1 .19-.64 3.24 3.24 0 0 0 1.62-2.37.46.46 0 0 1 .52-.41.48.48 0 0 1 .41.53 4.15 4.15 0 0 1-2.1 3.07.46.46 0 0 1-.22.06Z"/></g><g class="cls-17"><path class="cls-14" d="M344.39 99.74a1.91 1.91 0 0 1-1.83-2.54.47.47 0 1 1 .89.31 1 1 0 0 0 1.3 1.22.47.47 0 1 1 .37.87 2 2 0 0 1-.73.14Z"/></g><g class="cls-17"><path class="cls-14" d="M341.46 104a3.85 3.85 0 0 1-1.39-.25.48.48 0 0 1-.28-.61.46.46 0 0 1 .61-.27 3 3 0 0 0 2.2 0 3 3 0 0 0 1.56-1.55.46.46 0 0 1 .62-.24.47.47 0 0 1 .25.62 3.87 3.87 0 0 1-3.57 2.34Z"/></g><path class="cls-18" d="M327.45 84.52a4 4 0 0 1-1.85-.68 7.53 7.53 0 0 0-2-.87 2.41 2.41 0 0 0-2.17.87.48.48 0 1 1-.62-.72 3.39 3.39 0 0 1 3-1.07 8.14 8.14 0 0 1 2.21 1c1 .57 1.47.79 2.08.24a1.64 1.64 0 0 0 .16-2.08.47.47 0 0 1 .17-.65.46.46 0 0 1 .64.17 2.58 2.58 0 0 1-.34 3.26 1.91 1.91 0 0 1-1.28.53Zm.01 3.48a.47.47 0 0 1-.32-.81 16.25 16.25 0 0 1 6.48-3.78.47.47 0 1 1 .23.91 15.34 15.34 0 0 0-6.07 3.56.47.47 0 0 1-.32.12Z"/><path class="cls-9" d="M349.64 94.24a.1.1 0 0 0 .05.15 7.37 7.37 0 0 1 3.31 2.69 4 4 0 0 1-.88 4.86c-2 1.9-2.5 2-2.5 2s-4.39-.84-3.14-4.42a4 4 0 0 1 1.14-1.64.11.11 0 0 0 0-.18 17.73 17.73 0 0 1-5.74-3.19c-2.24-2.17-2.91-6.12-.39-8.37a3.55 3.55 0 0 1 3.15-.87c2 .44 3.32 2.44 2.14 4.34 0 .05 0 .1.07.09a3.29 3.29 0 0 1 2.64.64 2.71 2.71 0 0 1 .15 3.9Z"/><path class="cls-6" d="M339.82 96.48c-1.87-1.18-6.53-4.31-8.46-5.74l-.87-.65 1.32-1.32a1.12 1.12 0 0 0 0-1.6 1.13 1.13 0 0 0-1.6 0l-1.54 1.55-.46-.35 1.44-1.44a1.12 1.12 0 0 0 0-1.6 1.13 1.13 0 0 0-1.6 0l-1.57 1.57a.56.56 0 0 0-.05.08l-.51-.41 1.47-1.48a1.12 1.12 0 0 0 0-1.6 1.13 1.13 0 0 0-1.6 0l-1.56 1.57-.05.06a51.07 51.07 0 0 1-7.46-7.61 17.86 17.86 0 0 1-3-6.89c-.66-2.62-1-4.77-3.24-5.66-3.12-1.22-5.63 1.63-7.18 3.74a46.49 46.49 0 0 0-5.91 10.22c-1.29 3.24-2.83 8-.92 11.27a4.31 4.31 0 0 0 5.42 1.81 26.4 26.4 0 0 1 11.3-1.52c.34 0 .7 0 1.07.1a2.42 2.42 0 0 0-.67 1 2.76 2.76 0 0 0 .2 2.17c.81 1.56 2.91 2.34 4.52 2.72h.19a.84.84 0 0 0 .19-1.65c-1.1-.26-3-.79-3.21-2-.37-2.28 2.74-1.46 4-1.12 2.68.74 5.3 1.65 7.9 2.61 3.27 1.22 9.55 3.9 11.06 4.55a.52.52 0 0 0 .57-.08 3.5 3.5 0 0 0 1-1.82.38.38 0 0 0-.19-.48Z"/><path class="cls-19" d="M312 78.08a.36.36 0 0 1-.14 0 .49.49 0 0 1-.31-.59 20.5 20.5 0 0 0 .67-9.56.47.47 0 0 1 .39-.54.47.47 0 0 1 .54.39 21.26 21.26 0 0 1-.7 10 .46.46 0 0 1-.45.3Zm-9 13.65a.44.44 0 0 1-.37-.19.47.47 0 0 1 .09-.66A19.81 19.81 0 0 0 308 85a.47.47 0 0 1 .81.48 20.88 20.88 0 0 1-5.45 6.17.52.52 0 0 1-.36.08Zm-1.44-3.58a.49.49 0 0 1-.34-.14.47.47 0 0 1 0-.67 23.45 23.45 0 0 0 6.82-17.25.46.46 0 0 1 .46-.48.48.48 0 0 1 .49.45 24.41 24.41 0 0 1-7.11 18 .47.47 0 0 1-.32.09Z"/><path class="cls-14" d="M325.78 105.52s3.51-.4 6.28-6.55-1.65-7.21-1.65-7.21a2.56 2.56 0 0 0-3.57-2 2.51 2.51 0 0 0-2.35-1.33 2 2 0 0 0-1.49 1.34 6.33 6.33 0 0 1-2.86 3.38c-2.52 1.32-4.7 2.65-5.36 5.42Z"/><path class="cls-18" d="M327.19 100.08a.46.46 0 0 1-.36-.17.47.47 0 0 1 .05-.67A9.41 9.41 0 0 0 330.2 92a.48.48 0 0 1 .47-.48.44.44 0 0 1 .47.47 10.37 10.37 0 0 1-3.65 7.93.44.44 0 0 1-.3.16Zm-3.78-2.66a.47.47 0 0 1-.38-.19.47.47 0 0 1 .09-.66 8.57 8.57 0 0 0 3.26-6.72.47.47 0 0 1 .47-.47.47.47 0 0 1 .47.46 9.51 9.51 0 0 1-3.62 7.48.46.46 0 0 1-.29.1Z"/><path class="cls-16" d="m314.68 98.36 15.21 8.42 2.55-2.93a.53.53 0 0 1 .74-.07l9.95 7.7a.54.54 0 0 1 .1.74c-.55.77-1.68 2.32-1.68 2.32a7.14 7.14 0 0 1 3.79 4.23c.93 3.7-1.27 7-3.67 9.34-5.7 5.64-14.49 8.64-22.43 9.07-6 .33-12.51-1.42-15.55-7-2.82-5.21-1.87-11.36.32-16.61a46.83 46.83 0 0 1 9.82-14.34 5.19 5.19 0 0 1 .85-.87Z"/><path class="cls-20" d="M329.88 117.56a.48.48 0 0 0-.58-.33l-8.8 2.43c1.87-7.14 7.41-13.38 7.47-13.46a.46.46 0 0 0 0-.66.47.47 0 0 0-.67 0c-.35.4-8.72 9.84-8.31 19.18a.47.47 0 0 0 .47.45.47.47 0 0 0 .45-.49 16.23 16.23 0 0 1 .32-3.8 31.73 31.73 0 0 1 6.41 3 .47.47 0 0 0 .25.07.46.46 0 0 0 .4-.21.47.47 0 0 0-.14-.65 30.72 30.72 0 0 0-5.65-2.75l8.06-2.22a.47.47 0 0 0 .32-.56Z"/><circle class="cls-4" cx="227.67" cy="75.92" r="57.79"/><path class="cls-21" d="M220.57 118.33c1 4.51 6.38 12.1 10.76 15.25a57.35 57.35 0 0 0 23.31-6.58l-8.43-11.87a.42.42 0 0 1-.07-.39.45.45 0 0 1 .26-.31 19.34 19.34 0 0 0 5.27-3.6.46.46 0 0 1 .66 0 .47.47 0 0 1 0 .67 19.91 19.91 0 0 1-5 3.55l8.19 11.51a57.94 57.94 0 0 0 20.43-18.86 124.28 124.28 0 0 0-22.34-5.41c-.94.19-30.82 14-33.04 16.04Z"/><path class="cls-9" d="M247.3 115.07a19.91 19.91 0 0 0 5-3.55.47.47 0 0 0 0-.67.46.46 0 0 0-.66 0 19.34 19.34 0 0 1-5.27 3.6.45.45 0 0 0-.26.31.42.42 0 0 0 .07.39l8.46 11.85c.29-.15.57-.29.85-.45Z"/><path class="cls-5" d="M266.23 58.82c5.3 7.79 9.63 13.52 14.38 21.3 1.91 3.12 3.11 7.44 2.38 11-1.28 6.28-7.3 8.77-13.13 7.5a33.38 33.38 0 0 1-8.92-3.72 71.1 71.1 0 0 1-11.49-8.07c1.33-3.61 2.51-7.17 4.22-11.61 1.5-1.13 4.67-3.56 4.67-3.56s5.28-8.44 7.89-12.84Zm-58.59 52.33a19.85 19.85 0 0 1-11.35 3.24c-6-.16-9.55-5.59-9.08-11.14a30 30 0 0 1 2.3-8.86 128.48 128.48 0 0 1 6-12.45c4.39 1 8.89 2.3 13.29 3.32-1.8 8.27-3.16 17.65-1.16 25.89Zm14.12-74.6c3 1 8.65 4.16 10.8 6.17 1.65 1.54 2.44 2.53 2.77 4.83a6 6 0 0 1-3.66 6.23c.47 2.39 1 5 1.6 7.31a10.2 10.2 0 0 1-10.08 2.2c-.51-2.86-1.22-6.6-1.64-8.06a7.27 7.27 0 0 1-4 1.13c-1.46-.15-3.43-1.23-3.7-2.67a2.51 2.51 0 0 1 1.08-2.63 6.22 6.22 0 0 1 2.1-.58.47.47 0 0 0 .21-.87c-1.2-.76-2.46-1.54-4-2.62 1.29-1.66 6.84-8.7 8.52-10.44Z"/><path class="cls-11" d="M219.52 50.49a.91.91 0 0 1-1 .52c-.6 0-.95-.09-1.55-.17a2.65 2.65 0 0 0-3.17 2 9 9 0 0 1-3.57-2.57 6.39 6.39 0 0 1-1.32-4.4 7.18 7.18 0 0 1 1.68-4c1.7-2 3.57-3.3 4.75-5.92.44-1 .44-2.24 1.09-3.14a2.91 2.91 0 0 1 3.52-.64 3.91 3.91 0 0 1 2.05 2.44 6.15 6.15 0 0 1-1.13 5.08 23.88 23.88 0 0 1-2.81 3.31c-.8.84-2 2-2.1 3.22-.15 1.6 2.27 3 2.87 3.24s.79.66.69 1.03Z"/><path class="cls-2" d="M233.13 85.1c-7.13 1.44-15.07 4.06-22 2-5.59-1.7-11.85-3.67-16.06-5.14a.6.6 0 0 1-.31-.88c2.05-3.24 7.3-11 9.2-13.15a23.94 23.94 0 0 1 7.17-5.69 11.45 11.45 0 0 1 7.76-1.14A20 20 0 0 1 223 63a9.14 9.14 0 0 0 5.77.55c2.22-.55 4.09-2.16 6-4.09 2.39-2.46 4.69-4.88 7.9-6.07a15.51 15.51 0 0 1 9.84.38 16.24 16.24 0 0 1 5 3.16 43.53 43.53 0 0 1 7 9.06A79.88 79.88 0 0 1 252 76.47l1.95 25.91s-4.76 4.89-19.58 7.33Z"/><path class="cls-22" d="m270.19 39.42 6.29-11.84a1.12 1.12 0 0 0-.37-1.47 58.3 58.3 0 0 0-8.82-5.05 1 1 0 0 0-1.37.3l-7.53 11a1.47 1.47 0 0 0-.19 1.22l.94 2.54L242 63.1c-3.65-1.9-7.59-3.14-11.79-2.07a10.34 10.34 0 0 0-5.78 4.61 18 18 0 0 0-2.21 6.66 9.21 9.21 0 0 1-3.52 5.82 63.86 63.86 0 0 1-5.51 3.27 34.23 34.23 0 0 0-7.43 5.83 16.56 16.56 0 0 0-4.63 13.19 17.63 17.63 0 0 0 4.28 9.74c4.81 5.67 14 10.07 21.83 9.83a15.9 15.9 0 0 0 12.46-6.12c4.14-5 4.54-11.61 4.72-17.83a10.39 10.39 0 0 1 1.52-5.13c1.23-1.82 3.08-3.06 4.65-4.51 3-2.76 5.78-6 5-10.27-.65-3.51-3.33-6.23-6.23-8.4l16.91-27.25 2.63-.3a1.49 1.49 0 0 0 1.29-.75Z"/><circle class="cls-13" cx="235.53" cy="79.86" r="9.61"/><path class="cls-23" d="M263.51 21.49a.84.84 0 0 0-.91 0c-.55.32-1.28 1.6-.65 2.05s1.36-.23 1.64-.85a1 1 0 0 0-.08-1.2ZM259.8 25a2.34 2.34 0 0 0-.45.89c-.13.62.37 1 1 .8a1.54 1.54 0 0 0 .85-.9c.14-.42.17-.95-.21-1.16a1 1 0 0 0-1.19.37Zm-2.23 3.39c-.23.36-.48 1.06-.14 1.43.85.94 2.45-1.24 1.47-2-.49-.37-1.08.18-1.33.57Zm19.8 1.79a.84.84 0 0 1 .43.8c0 .64-.81 1.87-1.51 1.53s-.42-1.31 0-1.85a1 1 0 0 1 1.08-.48Zm-1.5 4.75a2.28 2.28 0 0 1-.58.81.7.7 0 0 1-1.18-.52 1.59 1.59 0 0 1 .41-1.18c.3-.31.76-.59 1.12-.35a1 1 0 0 1 .23 1.24ZM274 38.65c-.22.38-.72.92-1.2.79-1.23-.31 0-2.74 1.08-2.23.59.26.39 1.03.12 1.44Zm-45.88 47.1a.48.48 0 0 1-.26-.07.47.47 0 0 1-.14-.65l34.47-53.79a.46.46 0 0 1 .65-.15.47.47 0 0 1 .14.65l-34.47 53.8a.45.45 0 0 1-.39.21Zm7.34 3.76a.45.45 0 0 1-.25-.07.47.47 0 0 1-.15-.65L268.9 34.6a.47.47 0 0 1 .8.5l-33.84 54.19a.47.47 0 0 1-.4.22Zm-5.07-1.96a.44.44 0 0 1-.25-.08.47.47 0 0 1-.15-.65L267 28.17a.47.47 0 1 1 .79.51l-37 58.65a.49.49 0 0 1-.4.22Zm2.72.75a.47.47 0 0 1-.4-.72l36.63-58.21a.48.48 0 0 1 .65-.15.47.47 0 0 1 .15.65l-36.63 58.21a.47.47 0 0 1-.4.22Z"/><path class="cls-5" d="M258.25 72.47s-3.51-7-3.45-10.32c0-1.76.36-3.45-.3-5.13-.79-2-2.62-3.08-4.58-4a2.42 2.42 0 0 1-1.24-1.56 1.72 1.72 0 0 1 1-1.67 1.78 1.78 0 0 1-.79-1.88 1.57 1.57 0 0 1 1.72-1.28c0-1.29 1-1.93 2.55-1.85a10.49 10.49 0 0 1 5.83 2c-.76-1.93-2.4-3.31-3.59-5a1.71 1.71 0 0 1 .09-2.05 1.8 1.8 0 0 1 2-.5c4.55 2 7.57 6.67 8.54 11.53a39.08 39.08 0 0 1 .32 8.72c-.13.18 1.72 5.28 1.72 5.28Zm-62.78 25.79c5.23-1.67 20.91-6.54 26.28-8.28a7 7 0 0 1 .15-5 8.91 8.91 0 0 1 3.29-3.36 55.51 55.51 0 0 0 4.86-3.92c1.21-1.08 2.7.09 2.63 1.52a4.93 4.93 0 0 1-1.83 3.17 5.22 5.22 0 0 0-1.24 1.53c-.67 1.41.62 2.25 1.95 2a3.33 3.33 0 0 0 2.48-3c.14-1.53-1.46-2.2-1.38-3.62a1.79 1.79 0 0 1 3-1.24 6.85 6.85 0 0 1 2.37 3.68 5.79 5.79 0 0 1-.48 4c1.5-1.22 3-2.39 4.49-3.61.85-.69 2.11-1.62 3.14-1a1.57 1.57 0 0 1 .91 1.48 4.8 4.8 0 0 1-1.62 2.57 1.61 1.61 0 0 1 2 .27c.56.85-.22 2.09-.81 2.68.53 0 1.05.55.86 1.47-.36 1.64-3.06 4-4.38 5a18.28 18.28 0 0 1-12.43 3.31 192.16 192.16 0 0 1-23.17 14 1.84 1.84 0 0 1-2.23-.19c-4.06-3.02-9.4-12.72-8.84-13.46Z"/><g class="cls-17"><path class="cls-14" d="M225 42.53a2.22 2.22 0 0 1-.8-.15.48.48 0 0 1-.26-.62.49.49 0 0 1 .62-.26 1.11 1.11 0 0 0 1.23-.23 1 1 0 0 0 0-1.13.48.48 0 0 1 .19-.64.48.48 0 0 1 .64.19 1.86 1.86 0 0 1-.14 2.21 2 2 0 0 1-1.48.63Zm-3.88 4.41a2.32 2.32 0 0 1-.59-.07.48.48 0 0 1-.34-.58.47.47 0 0 1 .58-.33 1.4 1.4 0 0 0 1.46-.5 1 1 0 0 0-.23-1.23.47.47 0 0 1-.07-.66.49.49 0 0 1 .67-.07 2 2 0 0 1 .4 2.5 2.33 2.33 0 0 1-1.88.94Zm6.46 2.18a3.26 3.26 0 0 1-1.19-.22.48.48 0 0 1-.26-.62.47.47 0 0 1 .61-.26 2.28 2.28 0 0 0 3.08-1.65.47.47 0 0 1 .56-.37.46.46 0 0 1 .36.56 3.24 3.24 0 0 1-1.63 2.18 3.27 3.27 0 0 1-1.53.38Zm-8.66 4.24h-.12a5 5 0 0 0-2.37 0 .47.47 0 0 1-.57-.35.48.48 0 0 1 .35-.57 5.89 5.89 0 0 1 2.83 0 .47.47 0 0 1-.12.93Zm9.86 1.76h-.58a.47.47 0 0 1-.44-.5.46.46 0 0 1 .49-.44 8.78 8.78 0 0 0 3.06-.36.47.47 0 0 1 .59.31.48.48 0 0 1-.32.59 9.5 9.5 0 0 1-2.8.4Z"/></g><g class="cls-17"><path class="cls-14" d="M261.48 49.78a.46.46 0 0 1-.38-.2 15.88 15.88 0 0 0-2.31-2.58.47.47 0 0 1 .64-.68 15.53 15.53 0 0 1 2.44 2.68.47.47 0 0 1-.12.66.5.5 0 0 1-.27.12Z"/></g><g class="cls-17"><path class="cls-14" d="M259.09 51.53a.5.5 0 0 1-.35-.16 12.81 12.81 0 0 0-8.22-4.32.47.47 0 0 1 .11-.94 13.94 13.94 0 0 1 8.81 4.63.47.47 0 0 1-.35.79Z"/></g><g class="cls-17"><path class="cls-14" d="M256.57 53.53a.51.51 0 0 1-.34-.14 13.36 13.36 0 0 0-6.65-3.27.47.47 0 0 1-.4-.54.48.48 0 0 1 .55-.39 14.24 14.24 0 0 1 7.18 3.54.47.47 0 0 1 0 .67.46.46 0 0 1-.34.13Z"/></g><g class="cls-17"><path class="cls-14" d="M264.2 84.91a.47.47 0 0 1-.42-.27c-1.88-3.91-6.57-14.34-7.1-15.6a29.48 29.48 0 0 1-1.87-5.56 12.21 12.21 0 0 1-.05-2.89 8.53 8.53 0 0 0-.22-3.38c-.52-1.51-1.8-2.75-3.93-3.79a.47.47 0 0 1 .42-.85c2.36 1.16 3.8 2.57 4.4 4.33a9.29 9.29 0 0 1 .27 3.75 10.92 10.92 0 0 0 0 2.68 30 30 0 0 0 1.81 5.35c.52 1.25 5.21 11.65 7.08 15.55a.48.48 0 0 1-.22.63.54.54 0 0 1-.17.05Z"/></g><g class="cls-17"><path class="cls-14" d="M196.22 99a.48.48 0 0 1-.45-.33.47.47 0 0 1 .31-.59l25.56-8.19a.47.47 0 0 1 .59.31.46.46 0 0 1-.3.59L196.36 99Z"/></g><g class="cls-17"><path class="cls-14" d="M235.9 88.43a.48.48 0 0 1-.39-.21.47.47 0 0 1 .13-.66 5.56 5.56 0 0 0 2.09-2.56.47.47 0 0 1 .61-.27.48.48 0 0 1 .27.61 6.55 6.55 0 0 1-2.45 3 .5.5 0 0 1-.26.09Z"/></g><g class="cls-17"><path class="cls-14" d="M237.25 90.85a.47.47 0 0 1-.42-.27.48.48 0 0 1 .22-.63 28.46 28.46 0 0 0 7.4-5.29.48.48 0 0 1 .67 0 .47.47 0 0 1 0 .67 29.25 29.25 0 0 1-7.64 5.46.41.41 0 0 1-.23.06Z"/></g><g class="cls-17"><path class="cls-14" d="M238.16 93.47a.47.47 0 0 1-.19-.9 25.83 25.83 0 0 0 7.45-5.08.47.47 0 0 1 .67 0 .47.47 0 0 1 0 .67 26.87 26.87 0 0 1-7.72 5.26.43.43 0 0 1-.21.05Z"/></g><circle class="cls-8" cx="192.56" cy="125.48" r="8.31"/><circle class="cls-24" cx="192.56" cy="125.48" r="8.31"/><path class="cls-21" d="M181.23 137.92a.53.53 0 0 1-.29-.1.48.48 0 0 1-.09-.66 27.83 27.83 0 0 1 3.21-3.54.47.47 0 0 1 .64.7 25.2 25.2 0 0 0-3.09 3.41.5.5 0 0 1-.38.19Zm-4.63 6.41a.53.53 0 0 1-.24-.06.48.48 0 0 1-.17-.65 40.43 40.43 0 0 1 2.91-4.33.49.49 0 0 1 .67-.08.47.47 0 0 1 .08.66 37.07 37.07 0 0 0-2.84 4.22.49.49 0 0 1-.41.24Zm-3.72 7.12a.52.52 0 0 1-.32-.11 35.78 35.78 0 0 0-4-3.07.47.47 0 0 1-.15-.65.48.48 0 0 1 .66-.14 37.64 37.64 0 0 1 3.68 2.73 40.86 40.86 0 0 1 2.27-4.29.47.47 0 1 1 .8.49 42.92 42.92 0 0 0-2.47 4.76.47.47 0 0 1-.33.27Zm-6.27-4.54a.49.49 0 0 1-.28-.09 32.58 32.58 0 0 0-5.09-2.95.47.47 0 1 1 .4-.85 34.14 34.14 0 0 1 5.24 3 .48.48 0 0 1 .11.66.46.46 0 0 1-.38.23Z"/><ellipse class="cls-25" cx="147.82" cy="139.17" rx=".8" ry=".76"/><path class="cls-25" d="m136.25 144.81-.95 1.13a.1.1 0 0 0 0 .15l11 7.73a.11.11 0 0 0 .14 0l1.28-1.5a.11.11 0 0 0 0-.16l-11.3-7.36a.11.11 0 0 0-.17.01Z"/><path class="cls-24" d="m92 160.48 2.18 14.38 86.41-17.49-2.68-7.13L92 160.48z"/><path class="cls-21" d="M144.73 44.21 94.15 49s12.17 62 65.67 75.18l15.05-26a4.82 4.82 0 0 0-1.87-6.6C164.66 87 147.32 74 144.73 44.21Z"/><path class="cls-26" d="M109.18 37.56c-.81 0-2.08-.05-2.8 0-2.12.12-3.75 1.62-2.29 3.3a1.52 1.52 0 0 0-.78 1.66 2.17 2.17 0 0 0 2.48 1.59 1.6 1.6 0 0 0-.87 2.46c.53.85 2 1.17 3.25 1.44l.41 10.13a42.11 42.11 0 0 0 13 26.25l10-13c-12.63-13-12.79-21.34-12.79-21.34.55-1.62 1-3.16 1.25-3.9a4.93 4.93 0 0 0-1.68-5.29Zm66.76 59.65-13.8 10.44 2.79 7.72 11.01-18.16zm-24.43-37.64S142.34 71.7 150.19 73l-2.57 4.84 2.47 5.66 7.44-6.62L160 63.54Z"/><g class="cls-17"><path class="cls-5" d="M149.23 67.78a3.79 3.79 0 0 1-1.58-.35.47.47 0 1 1 .41-.85 2.79 2.79 0 0 0 2.76-.25.47.47 0 1 1 .55.77 3.65 3.65 0 0 1-2.14.68Z"/></g><g class="cls-17"><path class="cls-5" d="M155.86 66.33a.46.46 0 0 1-.43-.29.47.47 0 0 1 .24-.62 3.87 3.87 0 0 1 1.84-.28.47.47 0 0 1 .43.51.48.48 0 0 1-.52.43 2.69 2.69 0 0 0-1.37.21.43.43 0 0 1-.19.04Z"/></g><path class="cls-15" d="m148.1 77 2 6.25 7.79-6.78s6.11.12 11.73 5.81c4.85 4.92 7 14.64 7 14.64l-14.42 10.77 2.74 7.63-5.22 9s-18.75-4.44-32-16.81l1-13.94a98.45 98.45 0 0 1-9.72-7.91l-.21-.22 12.87-16.23A57.5 57.5 0 0 0 148.1 77Z"/><path class="cls-9" d="M152.25 58.46a.38.38 0 0 0-.32.1 3.44 3.44 0 0 0-1 3.15 3.19 3.19 0 0 0 2.42 2.29 10.41 10.41 0 0 0 2.73.19c1 0 2.95-.19 3.13 1.3.1.77-.55 1.37-1.09 1.81a5.1 5.1 0 0 0-2.12 2.75 3.08 3.08 0 0 0 1.24 3 4.54 4.54 0 0 0-.67 2.73 2.9 2.9 0 0 0 1.71 2 5 5 0 0 0 2.6.14 3.73 3.73 0 0 0 .53 2.83 2.43 2.43 0 0 0 1.57.94 5.32 5.32 0 0 0 2.25-.09 2.78 2.78 0 0 0 .64 1.39 3.21 3.21 0 0 0 1.5 1 3.35 3.35 0 0 0 2.56-.22 2.82 2.82 0 0 0 1.48-2.06 2.52 2.52 0 0 0-2.08-2.79 2.83 2.83 0 0 0-1.75 0 2.85 2.85 0 0 0 0-4.36 3.38 3.38 0 0 0-2.64-.6 3.51 3.51 0 0 0 1-2.11c0-2.69-3-3.45-5.19-2.85-.05 0-.08 0 0-.08a6.24 6.24 0 0 0 2.3-4.79c-.16-4-5.16-4.68-8.2-5.19-.91-.21-1.76-.34-2.6-.48Z"/><path class="cls-2" d="M137.52 111.5a2.05 2.05 0 0 1-1.64-.72c-.8-.93-1-2.76-.52-5.44a58.35 58.35 0 0 1 1.26-6l.11-.42a7.85 7.85 0 0 1 1.09-2.63 2.56 2.56 0 0 1 1.67-1 2.32 2.32 0 0 1 2.61 2.12 11.94 11.94 0 0 1-.16 3.68c0 .24-.07.48-.1.72a56.35 56.35 0 0 1-.79 4.53c-.3 1.43-1.1 5.22-3.48 5.25Zm2.11-15.37a1.62 1.62 0 0 0-1 .68 6.89 6.89 0 0 0-.93 2.32l-.12.43a55.39 55.39 0 0 0-1.24 5.94c-.51 3-.11 4.18.31 4.67a1.2 1.2 0 0 0 1 .39c1.09 0 1.95-1.53 2.58-4.5.33-1.56.6-3.1.78-4.46 0-.25.06-.49.1-.74a11.42 11.42 0 0 0 .15-3.39 1.38 1.38 0 0 0-1.53-1.34Zm6.24 16.39h-.08a.48.48 0 0 1-.39-.55l2.48-14.07-2.09 1.62a.47.47 0 0 1-.66-.09.47.47 0 0 1 .08-.66l3.06-2.36a.47.47 0 0 1 .75.46l-2.69 15.27a.48.48 0 0 1-.46.38Z"/><path class="cls-2" d="M148.13 113.05h-.08l-4.84-.81a.47.47 0 1 1 .16-.93l4.83.81a.46.46 0 0 1 .39.54.48.48 0 0 1-.46.39Z"/><path class="cls-20" d="M148.49 90h.12a.47.47 0 0 0 .32-.12L162.13 78l-1-.39-12.3 11.05-4.25-12.86-1.13-.43 4.71 14.27a.49.49 0 0 0 .33.36Zm-14.36-19.22-12.74 17 .72.61L135 71.26Zm25.5 37.65-4.17-10.27a.46.46 0 0 0-.61-.26.48.48 0 0 0-.26.62l4.41 10.82a.48.48 0 0 0 .31.28h.13a.47.47 0 0 0 .28-.09l17-12.53c-.07-.29-.14-.62-.24-1Z"/><path class="cls-6" d="M131.16 32.68a.42.42 0 0 0-.25-.24l-26.69-9.06a.45.45 0 0 0-.34 0 .41.41 0 0 0-.21.3c0 .36-1.16 8.79 5 13.79.06.05.89.9 1.32 1.24l6.71 2.64c.65 0 2.1-.17 2.25-.17 7.93-.4 12-7.86 12.17-8.18a.39.39 0 0 0 .04-.32Zm-26.71-8.34 2.46.84c-.07.45-.91 5.9.71 10.13-3.36-4-3.29-9.31-3.17-10.97Zm15.94 15.86c3.85-2.21 6.83-6.84 7.48-7.91l2.28.78c-.91 1.45-4.25 6.15-9.76 7.13Z"/><path class="cls-2" d="M118.66 37.51a.48.48 0 0 1-.39-.21.49.49 0 0 1 .13-.66 14.83 14.83 0 0 0 4.45-4.54.47.47 0 1 1 .8.5 15.91 15.91 0 0 1-4.73 4.83.5.5 0 0 1-.26.08Z"/><path class="cls-19" d="M109.67 38.89a.49.49 0 0 1-.38-.19c-3-4.13-3.13-10.06-2.32-13.89a.48.48 0 0 1 .93.2c-.78 3.63-.68 9.26 2.15 13.13a.48.48 0 0 1-.1.66.49.49 0 0 1-.28.09Zm7.12 2.71a.47.47 0 0 1-.46-.38.47.47 0 0 1 .37-.55c3.91-.78 8-4.29 10.58-9.17a.48.48 0 0 1 .64-.19.47.47 0 0 1 .19.64c-2.74 5.12-7 8.81-11.22 9.64Z"/><path class="cls-6" d="M110.82 38.34S110 41.93 110 42a11.57 11.57 0 0 1-7.47 7.88l-.86 2.33a3.74 3.74 0 0 0-3.11 3.55l7.63 2.64 1.28.41 7.64 2.62a3.76 3.76 0 0 0-.26-4.72l.75-2.36a11.55 11.55 0 0 1-1-10.77c0-.09 1.67-3.27 1.67-3.27Z"/><path class="cls-19" d="m115.19 61.65-16.5-5.72A.47.47 0 1 1 99 55l15.69 5.44a2.75 2.75 0 0 0-.58-3.24l-.27-.2.85-2.54a11.5 11.5 0 0 1-1.69-7.75.47.47 0 0 1 .57-.35.46.46 0 0 1 .35.56 10.87 10.87 0 0 0 1.73 7.27l.11.19-.79 2.34a3.89 3.89 0 0 1 .45 4.54Z"/><path class="cls-19" d="M114.44 57.34a.41.41 0 0 1-.16 0l-12.67-4.62a.47.47 0 0 1 .32-.89l12.67 4.63a.47.47 0 0 1 .28.6.47.47 0 0 1-.44.28Zm.56-2.41a.41.41 0 0 1-.16 0l-12.24-4.47a.47.47 0 0 1-.28-.6.48.48 0 0 1 .61-.29L115.2 54a.47.47 0 0 1-.16.92Z"/><path class="cls-26" d="M112.15 40.33a1.9 1.9 0 0 1 2.32-1.15 16.22 16.22 0 0 1 3.74 1.57 3.33 3.33 0 0 1 1.41 1.81 1.93 1.93 0 0 1-1.36 1.8c-1.64.53-4.2-.36-5.47-1.53a2.77 2.77 0 0 1-.64-2.5Zm-2.24.5a2.11 2.11 0 0 0 1.29-.75 1.65 1.65 0 0 0 .12-1.48c-.48-1.09-3.31-1.18-4.32-1.1a3.6 3.6 0 0 0-2.91 1.38 1.4 1.4 0 0 0 .27 1.39c1.41 1 3.76.88 5.55.56Zm-1.32 6.5a2.73 2.73 0 0 0 2-1.19c.58-1.2-.51-2.1-1.64-2-.57.06-1.63.15-2 .63S105.86 46.4 106 47s1.63.47 2.59.33Z"/><path class="cls-26" d="M108.89 44.23a2.27 2.27 0 0 0 2.07-.32 1.64 1.64 0 0 0 .51-1.71 2.07 2.07 0 0 0-1.54-1.36c-.51.11-.68.39-.94.84a3 3 0 0 0-.36 2.22c.07.25.02.25.26.33Z"/><path class="cls-5" d="m79.25 73.58-.65-3.26s-2.78.68-3.94-3.45a5.61 5.61 0 0 0-1.47-2.33A9.41 9.41 0 0 1 71 62.12a1.58 1.58 0 0 1 1.13-2.33 2.62 2.62 0 0 1 1.38.17 8.3 8.3 0 0 1 2.73 2c.08-.14.34 0 .33-.14a48.46 48.46 0 0 0-1-5.07 24.43 24.43 0 0 1-.73-4.14c0-.87.1-2.11 1.32-2.28 1.92-.26 2.56 2.12 3 3.36s.8 2.41 1.16 3.63a.58.58 0 0 1 .13-.27 2.21 2.21 0 0 1 2.1-1 2.09 2.09 0 0 1 1.77 1.43c0 .07.07.32.11.26a1.81 1.81 0 0 1 .79-.34 2 2 0 0 1 1.59.4 2.08 2.08 0 0 1 .74 1.47.59.59 0 0 0 0 .13 1.94 1.94 0 0 1 2.52.87 3.07 3.07 0 0 1 .21 2 9.3 9.3 0 0 1-.57 2c.28 1.16 1.24 5.18 1.57 7.49"/><path class="cls-11" d="M89.89 63.88a.48.48 0 0 0-.64.2c-.45.84-1 1.75-1.79 1.86a1.05 1.05 0 0 1-.82-.22.9.9 0 0 1-.3-.68 6.62 6.62 0 0 0 .79-1.61 15.5 15.5 0 0 0 .76-3.8.47.47 0 0 0-.42-.52.46.46 0 0 0-.51.42 14.67 14.67 0 0 1-.72 3.58c-.58 1.62-1.24 2.33-2.24 2.26a.79.79 0 0 1-.57-.28 2 2 0 0 1-.25-1.43l.1-.08c.85-.85 1.31-2.68 1.39-5.6a.46.46 0 0 0-.45-.48.49.49 0 0 0-.49.46c-.1 3.27-.66 4.49-1.12 5a1.45 1.45 0 0 1-1.59.3c-.77-.41-.74-1.42-.62-2.69v-.49l.18-2.55a.47.47 0 1 0-.94-.06L79.52 60v.46a7.52 7.52 0 0 0 0 1.84 8.74 8.74 0 0 0-2.83-.84.48.48 0 0 0-.52.42.47.47 0 0 0 .42.52 7.77 7.77 0 0 1 4.38 2 7.07 7.07 0 0 1 2 3.6.48.48 0 0 0 .45.35h.13a.47.47 0 0 0 .33-.58 10.18 10.18 0 0 0-.58-1.62 2 2 0 0 0 .69.19h.23a2.35 2.35 0 0 0 1.41-.48 1.76 1.76 0 0 0 .45.6 2 2 0 0 0 1.27.45 1.42 1.42 0 0 0 .29 0c1.35-.18 2.06-1.54 2.49-2.35a.47.47 0 0 0-.24-.68ZM82.4 97.34a.47.47 0 0 1-.47-.41L79 73.83a.46.46 0 0 1 .41-.52.48.48 0 0 1 .53.41l2.9 23.09a.47.47 0 0 1-.41.53Z"/><path class="cls-8" d="M75 94.75c5.63-.09 10.64.11 13.65 4.74 2.19 3.35 2.82 8.59 1.28 12.16-.6 1.39-2.35 3-4.11 3-3.84-.1-4.34-2.3-5.34-5-.75-2.08-2.06-2.24-3.55-2.28s-3.81-.33-4.6 1.4c-1.11 2.43-3 4.76-5.81 4.61a4.16 4.16 0 0 1-3.69-3.38c-1.77-7.81 3.5-15.13 12.17-15.25Z"/><circle class="cls-10" cx="75.81" cy="99.5" r=".9"/><circle class="cls-10" cx="79.12" cy="99.8" r=".9"/><circle class="cls-10" cx="75.52" cy="102.7" r=".9"/><circle class="cls-10" cx="78.83" cy="103" r=".9"/><path class="cls-5" d="M55.22 103.18c2.16 2.57 4.63 5.9 6.68 8.57.58-1.25 1.18-2.66 1.76-3.91a3.79 3.79 0 0 0 3.7-2.57 4.94 4.94 0 0 1 .85-1.5c.73-.73 1.32-.64 2.52-.8a1.93 1.93 0 0 0 1.77-1.71c.08-1.09-.42-1.68-.72-1.79a2.15 2.15 0 0 0 1.47-2 2 2 0 0 0-1.09-2.07 12.79 12.79 0 0 0 3.56-.23 2.45 2.45 0 0 0 1.91-1.64c.46-2.28-2.72-2.21-4.16-2.32-1.87-.14-3.73-.2-5.6-.25a10.77 10.77 0 0 0-4.8.53A8.69 8.69 0 0 0 60 94.73c-1.64 2.73-3.08 5.35-4.78 8.45Z"/><path class="cls-11" d="m54.85 103.27-2.8 2.6 2.16-6.36a.47.47 0 0 0-.9-.3L50.67 107a.37.37 0 0 0 0 .18l-7.75 7.2a.47.47 0 0 0 0 .67.47.47 0 0 0 .35.15.45.45 0 0 0 .32-.13l12-11.1a.47.47 0 0 0-.65-.69ZM72.26 95l-4.45-.27a.48.48 0 0 0-.5.44.49.49 0 0 0 .45.5l4.44.33a.47.47 0 0 0 0-.94Zm-.49 4-4.39-.21a.45.45 0 0 0-.5.44.47.47 0 0 0 .45.5l4.39.21a.47.47 0 0 0 0-.94Z"/><path class="cls-4" d="M50.68 35.37a4.79 4.79 0 0 0-.45-1.2 7.29 7.29 0 0 0-5.45-3.42 19 19 0 0 0-6.34.47.47.47 0 1 0 .18.92 18 18 0 0 1 6-.45 6.29 6.29 0 0 1 4.75 2.93 3.36 3.36 0 0 1 .32.79 8.55 8.55 0 0 0-1.41.27 4.28 4.28 0 0 0-2.54 1.7 2.6 2.6 0 0 0-.29 1.89 1.93 1.93 0 0 0 .86 1.22 2.49 2.49 0 0 0 2.56-.16 4.36 4.36 0 0 0 1.92-4 8.52 8.52 0 0 1 7.68 5.36.47.47 0 0 0 .53.31h.16a.47.47 0 0 0 .28-.6 9.49 9.49 0 0 0-8.76-6.03Zm-2.28 4.15a1.61 1.61 0 0 1-1.57.17 1 1 0 0 1-.44-.64 1.62 1.62 0 0 1 .19-1.18 3.3 3.3 0 0 1 2-1.28 7.38 7.38 0 0 1 1.31-.25 3.51 3.51 0 0 1-1.49 3.18Zm14.81-20.96 1.23-2.42a.47.47 0 0 0-.21-.63.46.46 0 0 0-.63.21L62.44 18l-2-1.56a.48.48 0 0 0-.66.1.47.47 0 0 0 .09.66L62 18.84l-1.35 2.65a.47.47 0 0 0 .21.63.41.41 0 0 0 .21.05.47.47 0 0 0 .42-.25l1.27-2.5L65 21.1a.52.52 0 0 0 .29.09.49.49 0 0 0 .38-.18.48.48 0 0 0-.1-.66Zm28.41 7.95a.48.48 0 0 0-.62-.19c-.16.07-4 1.84-6.59-2.65a.47.47 0 0 0-.83.46c.1.19 2.44 4.81-1.77 7.05a.47.47 0 0 0-.2.63.48.48 0 0 0 .63.21A5.5 5.5 0 0 1 86 31.8a5.3 5.3 0 0 1 3 2.95.48.48 0 0 0 .43.27.46.46 0 0 0 .2-.05.47.47 0 0 0 .23-.63c-.09-.19-2.17-4.73 1.6-7.2a.48.48 0 0 0 .16-.63Z"/><path class="cls-10" d="M190.07 124.45a14.77 14.77 0 0 0 3.49-7.21c-.31 0-.63-.06-.94-.06a13.78 13.78 0 0 1-8.15 10.15 7.3 7.3 0 0 0 .27.91 14.87 14.87 0 0 0 5.33-3.79Zm10.6-.79a7.84 7.84 0 0 0-.27-.91 14.73 14.73 0 0 0-9.4 10.88c.31.06.62.1.94.13a13.82 13.82 0 0 1 3.24-6.38 14 14 0 0 1 5.49-3.72Z"/><path class="cls-25" d="M158.64 138.74c-.46-.49-1.33-.38-2-.23l-.81.19 2.7 3a4.49 4.49 0 0 0 .31-.71 2.57 2.57 0 0 0-.2-2.25Z"/><path class="cls-9" d="m177.64 157.97-1.58-4.34-83.53 10.34 1.65 10.89 83.46-16.89z"/><g class="cls-17"><path class="cls-5" d="M109.61 44.64a34.7 34.7 0 0 0-4 0 .47.47 0 1 1 0-.94 32.35 32.35 0 0 1 4.06 0 .47.47 0 0 1 0 .94Z"/></g><g class="cls-17"><path class="cls-5" d="M113.81 48.9a.46.46 0 0 1-.44-.3 5.62 5.62 0 0 1 .17-4.7 3.53 3.53 0 0 1-2.15-2.9.48.48 0 0 1 .41-.53.47.47 0 0 1 .53.42 2.67 2.67 0 0 0 2 2.28.44.44 0 0 1 .3.28.48.48 0 0 1 0 .42 4.65 4.65 0 0 0-.37 4.35.48.48 0 0 1-.27.61.51.51 0 0 1-.18.07Z"/></g><g class="cls-17"><path class="cls-5" d="M110 41.4a38.53 38.53 0 0 0-5.72-.11.47.47 0 0 1-.07-.94 39.18 39.18 0 0 1 5.87.11.47.47 0 0 1 0 .94Z"/></g><path d="M63.41 119.14c-10 0-18.47 7.17-21.18 17l4.08-.16a19.78 19.78 0 0 1 3-5.57l5.35 5.22 2.29-.09-6.57-6.42a18.42 18.42 0 0 1 6.68-4.64l3.55 10.91 1.73-.08-3.7-11.37a17.15 17.15 0 0 1 4.78-.69 16.82 16.82 0 0 1 3.34.34l-2.09 11.63 1.71-.07 2-11.15a17.81 17.81 0 0 1 6.5 3.59L69.24 135l2.16-.09 4.68-6.19a19.71 19.71 0 0 1 3.92 5.85l4.08-.16c-3.23-8.93-11.26-15.27-20.67-15.27Z" style="fill:#99baff"/><path class="cls-4" d="M295.88 127.73a.46.46 0 0 0 .35.16h.12a.46.46 0 0 0 .34-.36l1.17-6.07a.47.47 0 0 0-.92-.18l-1 5.18a56.19 56.19 0 0 0-14.7-10.27l-.51.81a53.72 53.72 0 0 1 15.15 10.73Z"/><path class="cls-19" d="M331.11 89.47a.3.3 0 0 0-.08-.08c-2.29-1.59-4.64-3.54-6.22-4.9l-.58.57-.05.06.09.15c1.56 1.34 3.81 3.21 6.05 4.77h.17Zm-17.46 1.96c.46.06 1.18.2 2 .37.31-.51 1-.61 1.77-.56-1-.26-2.26-.52-3.13-.67a2.32 2.32 0 0 0-.64.86Z"/><path class="cls-4" d="m972.16 142.14-53.72-40.23 21.86-63.46 55.98 33.53-2.72 8.05-21.4 62.11z"/><path d="m968.88 80.29-1.39-4-12.21 4-4.52 6.52C943.51 91 940.32 98.7 940.32 98.7l11.43 28.15.42.32c3.94-1.63 7-7.94 7-7.94l21.05-.49 10.22-29.65c-4.16-13.69-21.56-8.8-21.56-8.8Z" style="fill:#00e5be"/><path class="cls-13" d="M951.35 57.67c.09-2.76 2.72-4.44 5.28-4.81a6.71 6.71 0 0 1 5.45 1.9 8.9 8.9 0 0 1 2.67 6 4 4 0 0 1 3.1-.26 3.59 3.59 0 0 1 2.15 2.14 4.74 4.74 0 0 1-.22 3.47c2.41-.84 4.06 1.3 3.81 3.56l-28.23 9.38s-3.5-3.52-2.37-7.25a5 5 0 0 1 4.14-3.5 7.63 7.63 0 0 1-.47-7.17c1.63-3.6 4.69-3.46 4.69-3.46Z"/><path class="cls-26" d="M950.49 66.51s2 5.51 6.27 5.1l2.18 7.5 6-2-3.38-8.25s1.57-1.88 1.15-5.75a.2.2 0 0 0-.23-.16c-4.25.92-7.26-2.51-8.51-4.27a1.31 1.31 0 0 0-1.15-.6.36.36 0 0 0-.32.43c.64 4.07-.05 5.94-2.01 8Z"/><path class="cls-29" d="M954 68.06a2.69 2.69 0 0 1 2.89-1.46 2.39 2.39 0 0 1 2.89-.76s.18 2.62-1.87 3.41a3.3 3.3 0 0 1-3.91-1.19Z"/><path d="M954 64.68a2.72 2.72 0 0 0 1.52-1.42.37.37 0 0 0-.18-.48.35.35 0 0 0-.47.19 2 2 0 0 1-1.12 1 2 2 0 0 1-1.48 0c-.09.22-.19.44-.3.65a2.7 2.7 0 0 0 1 .23 2.6 2.6 0 0 0 1.03-.17Z"/><path d="m958.5 82.09 2.36-3.64-1.79.6-1.57 2.4 1 .64zm-6.93 8.72-.9-.76a12.64 12.64 0 0 1-6 4.34c.87-1.77 1.72-3.46 2.5-5a26.2 26.2 0 0 0-2.81 2.9c-1.19 2.39-2.43 5-3.56 7.52l.63 1.53c.8-1.86 1.69-3.78 2.59-5.66.61-.02 3.9-.53 7.55-4.87Zm6.43 6.68-.29-.22c.55-.56 1.1-1.12 1.67-1.72l-.86-.81c-5.68 6-10.54 10.09-14.06 11.82a.75.75 0 0 1-.94-.19.77.77 0 0 1 0-1 93.39 93.39 0 0 1 10.16-11.48l-.81-.86a95 95 0 0 0-10.15 11.44l1.35 3.32h.09a2 2 0 0 0 .88-.21 42.73 42.73 0 0 0 9.4-7.09c-2.52 3.66-6.13 9.31-7.76 13.71l.32.8.57.19c2.23-6.72 10.35-17.59 10.43-17.7Zm10.75 7.51-.86-.81c-.78.84-1.69 1.7-2.66 2.57.44-1.08.7-1.74.72-1.76l-1.1-.44s-.63 1.58-1.6 3.91a140.35 140.35 0 0 1-11.36 8.33l.65 1c.29-.19 5-3.29 9.74-7-1.55 3.66-3.6 8.34-5.57 12.37a27.39 27.39 0 0 0 2.46-4h.72c1.65-3.62 3.21-7.28 4.33-10a52.29 52.29 0 0 0 4.53-4.17Zm14.93-19.78A42.62 42.62 0 0 0 972 97.39l1 .61a43.68 43.68 0 0 1 9.6-10.57 37.94 37.94 0 0 1-12.19 14l.67 1a39.46 39.46 0 0 0 13.5-16.35 23.37 23.37 0 0 1 3.32-1.76c-.27-.32-.56-.63-.85-.92-.57.26-1.14.53-1.68.83.25-.62.45-1.2.64-1.74a11.26 11.26 0 0 0-1-.69c-.32.97-.76 2.13-1.33 3.42Zm-15.21-2.7a1.91 1.91 0 0 0-1.26-1c-1.48-.33-3.39 1-4.31 1.62l-.08.06c-1.94 1.34-4 2.61-6 3.84l-1.16.73.62 1 1.17-.73c2-1.24 4-2.51 6-3.87l.09-.06c.65-.45 2.39-1.66 3.37-1.44a.74.74 0 0 1 .5.39c.35.62-.46 2-.8 2.64l-.06.09c-.37.66-.75 1.27-1.12 1.87a60.63 60.63 0 0 0-5.72 5.23l.86.8s1-1.08 2.7-2.6l-.64 1.07 1 .59c.65-1.14 1.3-2.16 1.94-3.15.22-.35.44-.71.67-1.06 3.8-3.07 9.14-6.68 14.85-8.47a18.92 18.92 0 0 0-2.31-.47A47.44 47.44 0 0 0 968 85.77c.49-.95 1-2.26.47-3.25ZM990 87.9a30 30 0 0 1-1.42 3.65l-9.29 10.15.87.8 6.13-6.7a57 57 0 0 1-4.95 6.92l.89.78a56.18 56.18 0 0 0 6.59-9.77l1.6-4.64c-.11-.41-.25-.81-.42-1.19Z" style="fill:#97ffed"/><path class="cls-8" d="m1196.92 44.49-1.86 19.61 2.17 3.68a4.62 4.62 0 0 1-3.17 6.88l-6.65 70 70.68 10.34s9.13-36.84-.51-64.89-30.41-43.42-60.66-45.62Z"/><path class="cls-9" d="m1235.69 127.09-31.72-.97 1.09 21.14 40.26 5.88-9.63-26.05z"/><path class="cls-12" d="M1065.26 62.7a25 25 0 0 0 11.46-9.77c4.88-7.52 7.14-11.46 16.16-13.91s18.78-4.69 26.3-15.59 13.34-13.53 21.23-15.22l47.53 67.07-85.26 38.72c-8.5 0-13.28-5.37-14.17-13.72v-3.21l.29-16.07a20.72 20.72 0 0 0-5.57-14.44 9.62 9.62 0 0 0-6.31-3Z"/><rect class="cls-4" x="1153.86" y="59.69" width="37.75" height="7.91" rx=".7" transform="rotate(12.44 1172.816 63.666)"/><path class="cls-15" d="m1191.39 63.71-1.05-.23-5.52 5.93-5.25-1.16 5.54-6-1.07-.23-5.55 5.98-5.28-1.17 5.54-6-1.07-.23-5.44 5.85-.07.11-5.21-1.15 5.54-6-1.07-.23-5.4 5.81a.34.34 0 0 0-.1.16l-5.07-1.12 5.54-6-1.07-.24-5.45 5.86a.24.24 0 0 0-.06.11l-5.07-1.12 5.52-5.93-1.06-.24-5.54 6-.05.24a.66.66 0 0 0 .5.78l35.58 7.85a.66.66 0 0 0 .79-.5v-.24l-4.66-1Z"/><path class="cls-21" d="M965.9 159.07c.08.07.15.15.23.23 21.88 21.88 55.8 23.44 75.76 3.48s18.41-53.89-3.47-75.77l-.23-.22Z"/><path class="cls-9" d="m1050.43 151.06-18.9-21.34-30.68 5.87c-5.56 14.86-2.88 23.95-1.71 29.82a374.8 374.8 0 0 1 2 11 51.9 51.9 0 0 0 22.17-2.22c-1.88-10.05-3.25-24.51-3.25-24.51l1.6-.42 14.38 18.41a46.16 46.16 0 0 0 14.36-16.63Z"/><ellipse class="cls-4" cx="918.93" cy="65.14" rx="4.62" ry="13" transform="rotate(-25 918.782 65.172)"/><path class="cls-10" d="M979.73 107.23a.47.47 0 0 1-.46-.4L976.93 92a.47.47 0 0 1 .39-.54.48.48 0 0 1 .54.39l2.34 14.88a.47.47 0 0 1-.39.54Z"/><path class="cls-29" d="M952.19 75.28a1.15 1.15 0 0 1 .35-1c.58-.58 1.83-1.19 2-.48 0 .15 1.82 11.43 1.82 11.43l-3.15.53Z"/><path class="cls-10" d="M959.76 119.23a.45.45 0 0 1-.39-.22L950 104.3a.47.47 0 0 1 .8-.51l9.33 14.72a.47.47 0 0 1-.14.65.48.48 0 0 1-.23.07Z"/><path class="cls-26" d="M947.93 105.41c2.35 3.25 4.85 6.47 6.44 10.19 1.52 3.54 2.47 8.77-1.2 11.31-4.74 3.28-10.57-1-13.42-5.81-2.37-4-10.29-22.25-11.39-24.44-2.87 1.37-5.55 2-7.36 1.33-.66-.22-1.49-1.07-1-1.94-1.65.35-2.9-.19-3.2-1.2a1.46 1.46 0 0 1 1.1-1.81 1.59 1.59 0 0 1-1.24-2.68 3.17 3.17 0 0 1 1.69-.7 23.91 23.91 0 0 0 3.9-.66 4.43 4.43 0 0 1-1.45-4.64c.45-1.54 2-3.09 3.43-3.17s1.73 1.53 1.2 2.52c-.15.3-.42.54-.54.85-.72 1.87 1.46 3.51 3.11 3.41 1.19-.07 2.37-.48 2.31-2 0-1-.77-1.69-1-2.58-.56-2.08 2.29-2.42 3.45-1.32a7 7 0 0 1 2.3 7c.53.62 8.74 10.65 12.87 16.34Z"/><path class="cls-5" d="M924 91a.41.41 0 0 1-.21 0 7.67 7.67 0 0 1-2.24-1.67.47.47 0 0 1 .7-.64 6.47 6.47 0 0 0 2 1.47.47.47 0 0 1-.25.84Zm-5 2.48h-1.12a.47.47 0 0 1-.44-.5.46.46 0 0 1 .5-.44 16.51 16.51 0 0 0 5.76-.65.47.47 0 1 1 .27.9 17.48 17.48 0 0 1-4.97.69Zm1.12 2.87a.46.46 0 0 1-.47-.44.47.47 0 0 1 .44-.5 19.86 19.86 0 0 0 4.72-.77.47.47 0 1 1 .29.9 21.39 21.39 0 0 1-5 .81Z"/><path class="cls-4" d="M966.72 30.48c-.18 0-4.45 0-5-5.09a.47.47 0 0 0-.51-.42.46.46 0 0 0-.43.5c0 .22.28 5.39-4.48 5.72a.48.48 0 0 0 0 .95 5.52 5.52 0 0 1 3.7 1.34 5.35 5.35 0 0 1 1.51 3.9.47.47 0 0 0 .47.45.46.46 0 0 0 .45-.48c0-.21-.07-5.21 4.39-5.93a.48.48 0 0 0 .4-.51.46.46 0 0 0-.5-.43Zm14.34 10.82c-.13 0-3.06 0-3.42-3.53a.47.47 0 0 0-.51-.42.46.46 0 0 0-.43.5c0 .15.21 3.73-3.09 4a.47.47 0 0 0-.43.5.49.49 0 0 0 .48.45 3.41 3.41 0 0 1 3.51 3.62.46.46 0 0 0 .47.46.47.47 0 0 0 .46-.48c0-.15 0-3.62 3-4.12a.47.47 0 0 0 .39-.51.5.5 0 0 0-.43-.47Zm199 96.27-13.66-37.68a.94.94 0 1 0-1.77.64l13.46 37.14a119 119 0 0 0-25.43 3.85 107.2 107.2 0 0 0-12.06 4.15l-9.27-42.11c16.45-6.64 26.53-8.58 26.53-8.58l-1.27-7.36a170 170 0 0 0-38.81 15.86c-6.37 3.62-13.85 10.07-21.63 6.71-5.57-2.41-5.47-10.15-5.34-15.18.19-7.27 2.37-14.52.22-21.7-1.58-5.29-5.17-9.6-10.53-11.31a21 21 0 0 0-4.24-.85.46.46 0 0 0-.36-.4.47.47 0 0 0-.55.32c-12-.7-23.76 8-23.76 8l.89 3.93a71.74 71.74 0 0 1 8.83-4.75l1.9 9.5a25.43 25.43 0 0 0-8.58-.31l1 3.67c6.42-.9 13.63 1.38 17 7.28 4.21 7.46 1.12 16-1.35 23.51-2.8 8.43-5 17.27-4.48 26.22.4 7.06 2.69 14.12 7.63 19.47 9 9.76 23.67 8.7 36 5.26 9.62-2.69 18.78-7 27.93-11 24.22-10.4 49.08-7.23 49.08-7.23l.25-7.36c-2.69.12-5.22.2-7.63.31Zm-102-39.51 9.45-6.62a66.65 66.65 0 0 0 0 10l-11.63 8.56a47.37 47.37 0 0 0 2.18-11.94Zm9.62-9.33c0 .49-.06 1-.1 1.51l-9.51 6.66a23.54 23.54 0 0 0-.61-5 23 23 0 0 0-1.08-3.37l11.41-11.73c.75 3.85.14 8.28-.11 11.93ZM1064.22 78l-2-10.12c5-2.11 9-2.86 12.25-2.75l-3.53 16.06a18.73 18.73 0 0 0-6.72-3.19Zm7.51 3.87 3.67-16.67c7.92.71 10.7 6.74 11.7 9.2a12.53 12.53 0 0 1 .43 1.31L1076 87.62a17 17 0 0 0-4.27-5.72Zm1.59 36.8c.64-2.38 1.4-4.79 2.13-7.23l12.22-9a21.59 21.59 0 0 0 1.08 4.64 14.87 14.87 0 0 0 2.53 4.38l-20.18 19.73a70.56 70.56 0 0 1 2.22-12.49Zm3.4 35.56c-4.87-5.76-6.14-13.75-5.72-21.59l20.91-20.44a11.57 11.57 0 0 0 6 3.42 11.77 11.77 0 0 0 4.32.06l-5.37 45c-7.86.6-15.42-.83-20.14-6.42Zm39.54 1.84a73.25 73.25 0 0 1-18 4.49l5.39-45.18c3-.73 6.69-2.33 11.59-4.71 5.15-2.49 9.93-4.61 14.3-6.42l9.28 42.12c-7.56 3.19-14.91 6.82-22.56 9.73Z"/><path class="cls-14" d="M1158.77 75.67s-.62-.42-1.65-1c-.39-.22-.83-.48-1.33-.75-.32-.18-.68-.36-1-.55l-1.16-.57-1.25-.57-1.33-.54c-.45-.17-.91-.33-1.38-.49a22.27 22.27 0 0 0-3.56-.87 13.68 13.68 0 0 0-1.42-.15h-.7a11.38 11.38 0 0 0-2 .18l-17-8.8-.26-.19-1.24-.91-1.5-1.12-.48-.38-.19-.15-3.79-3.37 9.72-10.16a71.16 71.16 0 0 1 11.74 5.05c.16.09.31.19.46.29l.89.58a2.52 2.52 0 0 0 2.32.42.76.76 0 0 0 .39-.65c.37.28.7.51 1 .74s.68.48 1.09.79a3 3 0 0 0 2 .84.85.85 0 0 0 .52-.33 1 1 0 0 0-.19-1.41c.92.61 1.55-.7 1-1.43l-.14-.13a.46.46 0 0 0 .23 0c.5-.09.69-1.08.07-1.46a.4.4 0 0 0 .42-.18.67.67 0 0 0 .13-.35.92.92 0 0 0-.2-.64 5.7 5.7 0 0 0-.82-.8l-.42-.36-.83-.65-.47-.36c-.66-.49-1.42-1-2.26-1.62a108.16 108.16 0 0 0-9.69-6c-1.06-.58-2.13-1.12-3.16-1.62-.78-.37-1.54-.71-2.27-1a13.59 13.59 0 0 0-3.84-1 10.6 10.6 0 0 0-1.11-.06 9.11 9.11 0 0 0-4.2 1 7.14 7.14 0 0 0-2.17 1.63s-3 2.77-5.92 6.19L1098.74 54l-2.56-2.75-2.57-2.75v-.08a3.89 3.89 0 0 0-2-1.73 1.69 1.69 0 0 0-.55-.06 2 2 0 0 0-1.11.41 3.47 3.47 0 0 0-.37.3c-.11.1-.22.22-.33.34a5.52 5.52 0 0 0-.56.78 6.71 6.71 0 0 0-.42.85 8 8 0 0 0-.32.84 10.94 10.94 0 0 0-.44 2 11.52 11.52 0 0 0 .66 1.56c.08.16.18.34.28.51a6.3 6.3 0 0 0 .51.76 4.2 4.2 0 0 0 1.09 1 2.29 2.29 0 0 0 1.07.33 2.22 2.22 0 0 0 .91-.19 3.64 3.64 0 0 0 1-.67 5.77 5.77 0 0 0 .71-.75l2.2 2.32-4.38 5.76-6.62 6-.73-8.7c.5-.76 2.67-3.68 1.41-4.52-.51-.34-1.48.1-1.76.57-.26-.59-.65-1.11-1.21-1.08a1.18 1.18 0 0 0-1 .88 1.33 1.33 0 0 0-1.42-.16 1.3 1.3 0 0 0-.66 1.12 1.27 1.27 0 0 0-1.48.65 6 6 0 0 0 0 3.48s-3.06 16.28 1.22 20.2 10.31-1 10.31-1 .93-.75 2.25-2l.09-.09.65-.64.13-.14.69-.71.18-.19.79-.88.08-.08.88-1 .2-.25c.22-.27.43-.55.65-.83l.29-.4c.19-.26.37-.51.55-.78l.3-.44c.18-.27.36-.56.53-.84l.25-.41c.25-.42.49-.85.71-1.28l2.15-4 2.27 1.26s.67.5 1.71 1.25l.36.26c.87.62 1.94 1.38 3.07 2.16l1 .68 1 .67c1 .66 2 1.29 2.81 1.82.58.36 1.1.66 1.55.9l.32.17-7.86 8.89-2.06 2.51-.8 1c-1.12 1.41-2.46 3.14-3.83 5-.51.7-1 1.4-1.53 2.12-.67 1-1.33 1.92-2 2.87l-.45.71c-.31.47-.59.93-.87 1.39l-.78 1.35c-.11.2-.22.42-.34.65 0 .07-.07.14-.11.22s-.18.36-.27.55l-.12.25c-.13.27-.26.55-.39.85l-.1.21c-.1.24-.21.48-.33.74l-.18.41-.27.64c-.06.15-.13.29-.19.45s-.26.62-.39.94v.08c-4.68 11.34-11.66 31.72-11.66 31.72s2.66 4.56 10.12 4.26c0 0 14.92-19.31 16.63-31.59a5.77 5.77 0 0 1 .26-1.09 6.57 6.57 0 0 1 .42-1c.07-.14.15-.28.23-.41s.11-.18.18-.27a5.11 5.11 0 0 1 .5-.65c.52-.58 1.16-1.3 1.9-2.15l.76-.89c.53-.62 1.1-1.28 1.7-2a159.81 159.81 0 0 0 10-13.15l5.15-7.14 18 9c3.31-1.12 6.74-2.18 10.28-3.15 0 0 .11.63.27 1.52l2.06-.64Z"/><path d="M1086.41 50.47c-.31.27-.72.35-1 .65a.93.93 0 0 0 .46 1.52 2.47 2.47 0 0 0 2.46-1.31 11.44 11.44 0 0 0 .83-1.44 3.6 3.6 0 0 1 .88-1.34 1.78 1.78 0 0 1 .66-.33 2.8 2.8 0 0 1 2 .67c.69.53 1.72 1.65 2.63 1.72a.66.66 0 0 0 .71-.41 4.83 4.83 0 0 0-.34-2.09 3.76 3.76 0 0 0-2.63-2.93 7.39 7.39 0 0 1 2.15-3.75c2.35-2 5.77-1.75 8.61-2.5 4.84-1.29 9.94-6.47 8.74-11.9a6 6 0 0 0-4.17-4.54c-3.56-.82-5.21 3-5.86 5.73s-1.34 6.17-4.41 7a9.18 9.18 0 0 0-4.9 2.77 8.87 8.87 0 0 0-1.59 6.7c0 .15 0 .3.07.44a4.84 4.84 0 0 0-2.57 1.18 9.11 9.11 0 0 0-1.46 2.07 6.74 6.74 0 0 1-1.27 2.09Z"/><path class="cls-18" d="M1091.18 54.19a.48.48 0 0 1-.45-.34.47.47 0 0 1 .32-.59 1.17 1.17 0 0 0 .8-1.24.49.49 0 0 1 .4-.54.47.47 0 0 1 .54.4 2.14 2.14 0 0 1-1.48 2.29Zm-7.83 3.7h-.12a.47.47 0 0 1-.33-.58l.37-1.36a.47.47 0 0 1 .91.25l-.37 1.36a.47.47 0 0 1-.46.33Zm-1.57 15.02a.53.53 0 0 1-.27-.08.48.48 0 0 1-.12-.66 38.08 38.08 0 0 1 3.06-3.88.47.47 0 1 1 .7.63 36.53 36.53 0 0 0-3 3.79.47.47 0 0 1-.37.2Zm45.85-27.46a.48.48 0 0 1-.36-.78c.94-1.06 1.93-2.09 3-3.05a.47.47 0 0 1 .67 0 .46.46 0 0 1 0 .66c-1 1-2 2-2.89 3a.44.44 0 0 1-.42.17Zm15.37 5.92h-.09a.47.47 0 0 1-.37-.56 1.35 1.35 0 0 0-.22-.92 3.56 3.56 0 0 0-.81-.83 9.46 9.46 0 0 0-2.12-1.33.47.47 0 0 1-.29-.49 3.88 3.88 0 0 0-1.13-3.09.48.48 0 0 1 0-.67.47.47 0 0 1 .67 0 4.81 4.81 0 0 1 1.42 3.51 11.12 11.12 0 0 1 2 1.33 4.07 4.07 0 0 1 1 1.07 2.19 2.19 0 0 1 .34 1.6.46.46 0 0 1-.4.38Zm4.58.93a.44.44 0 0 1-.32-.13 12.16 12.16 0 0 0-3.09-2.08.47.47 0 0 1 .39-.85 12.78 12.78 0 0 1 3.34 2.24.47.47 0 0 1 0 .67.46.46 0 0 1-.32.15Zm.59-1.68a.47.47 0 0 1-.31-.12 15.12 15.12 0 0 0-3.14-2.19.48.48 0 0 1-.2-.64.47.47 0 0 1 .63-.2 16.48 16.48 0 0 1 3.34 2.32.48.48 0 0 1-.32.83Zm.23-1.62a.45.45 0 0 1-.32-.13 11.28 11.28 0 0 0-2.59-1.84.47.47 0 0 1-.21-.63.49.49 0 0 1 .64-.21 12.07 12.07 0 0 1 2.81 2 .47.47 0 0 1 0 .67.44.44 0 0 1-.33.14Z"/><path class="cls-2" d="M1091.23 62.44c.86-1.14 3.64-4.8 4.16-5.4a5.92 5.92 0 0 0 3.29-3.13s6.8-8 12.46-12.28a.81.81 0 0 1 .82-.09c1.77.78 8.48 3.89 12.67 7.51a.71.71 0 0 1 0 1l-3.89 4s2.16 2 3.25 3a.7.7 0 0 1 0 1c-2 2.18-10 11.22-13.27 15.14a.94.94 0 0 1-1.19.22 39.49 39.49 0 0 1-5.3-3.49l-2.94 4a.67.67 0 0 1-1.11 0 65.66 65.66 0 0 0-9-10.95.48.48 0 0 1 .05-.53Z"/><path class="cls-15" d="M1120.74 54.19a.42.42 0 0 1-.24-.07 23.84 23.84 0 0 0-9.87-3.41.47.47 0 0 1-.41-.52.47.47 0 0 1 .52-.42 24.67 24.67 0 0 1 10.26 3.55.48.48 0 0 1 .16.65.49.49 0 0 1-.42.22Zm-19.92 20.39a.46.46 0 0 1-.29-.1.47.47 0 0 1-.08-.66c2-2.58 3.9-5.24 5.76-7.91a.48.48 0 0 1 .66-.11.47.47 0 0 1 .12.65c-1.87 2.68-3.82 5.36-5.79 7.94a.5.5 0 0 1-.38.19Z"/><path class="cls-21" d="m1124.91 61.5-19.54 21.18c-1 1.08-.52 2.19 1 2.22 3.41.07 9 1.88 16.61 6a1.22 1.22 0 0 0 1.51-.27l5.47-6.55 2.5 1.08s11-11.84 15-17.79c.65-1-.14-2-1.29-1.76a9 9 0 0 1-4.49-.25c-5.63-1.47-11.98-7.21-16.77-3.86Z"/><path class="cls-31" d="M1131.9 85.38a137.26 137.26 0 0 1-18.44-11.14l.54-.77a137.64 137.64 0 0 0 18.31 11.06Z"/><path class="cls-22" d="M1073 145.76a24.23 24.23 0 0 0 10.32.94c2.39-.18 4.58.6 6.45.88a11.41 11.41 0 0 0 4.31-.31c-1-1.74-1.9-3.8-2.48-4.78a1.09 1.09 0 0 0-1-.54 12.2 12.2 0 0 1-9.84-4 1.11 1.11 0 0 0-1.41-.25 46.67 46.67 0 0 1-6 2.78 51.58 51.58 0 0 1-6.12 1.91 14.83 14.83 0 0 0 5.77 3.37Z"/><path class="cls-23" d="M1094.06 147.27a11.41 11.41 0 0 1-4.31.31c-1.87-.28-4.06-1.06-6.45-.88a24.23 24.23 0 0 1-10.32-.94 14.83 14.83 0 0 1-5.73-3.42l-.63.14a1 1 0 0 0-.61 1.46c3.24 4.53 11 5.15 15 4.7 2.12-.23 3.63-.44 5.48.53a10.24 10.24 0 0 0 6.54.53 1.59 1.59 0 0 0 1.06-2.38ZM1079 141a.48.48 0 0 1-.45-.33l-.65-2.1a.47.47 0 0 1 .9-.28l.65 2.1a.47.47 0 0 1-.31.59.32.32 0 0 1-.14.02Zm-2.57.71a.48.48 0 0 1-.45-.33l-.53-1.7a.47.47 0 1 1 .9-.28l.53 1.7a.47.47 0 0 1-.31.59.32.32 0 0 1-.14.02Zm-2.43.77a.47.47 0 0 1-.45-.33l-.45-1.45a.47.47 0 0 1 .9-.28l.45 1.45a.47.47 0 0 1-.31.59.36.36 0 0 1-.14.02Z"/><path class="cls-4" d="M1187.78 28a.5.5 0 0 1-.37-.17.49.49 0 0 1 .07-.67 94.58 94.58 0 0 1 23.74-14.42.47.47 0 1 1 .37.87 94.17 94.17 0 0 0-23.51 14.28.5.5 0 0 1-.3.11Zm-8.2 14.46a.45.45 0 0 1-.32-.13.47.47 0 0 1 0-.67 82.65 82.65 0 0 1 27.1-18.86.46.46 0 0 1 .62.25.47.47 0 0 1-.24.62 81.62 81.62 0 0 0-26.8 18.64.45.45 0 0 1-.36.15Z"/><path class="cls-24" d="M995.8 175.58c16.63 3.52 34-.66 46.09-12.8a47.19 47.19 0 0 0 11.11-17.62c2.85-8-12.11-25.58-36.85-22.68s-30.42 19.94-28.76 34.44c1.13 9.81 3.52 17.63 8.41 18.66Z"/><path class="cls-21" d="M1000.39 144.36a.47.47 0 0 1-.33-.81 12.56 12.56 0 0 0 3.63-6.68.47.47 0 0 1 .93.18 13.52 13.52 0 0 1-3.91 7.18.45.45 0 0 1-.32.13Zm14.38 7.32a.46.46 0 0 1-.45-.32.48.48 0 0 1 .3-.6l9.67-3.11a.47.47 0 0 1 .29.9l-9.67 3.11a.34.34 0 0 1-.14.02Z"/><path class="cls-22" d="M1004.05 99.37c-.2-.42-4 1.52-4.4 1.74a14.5 14.5 0 0 0-3.77 3.3 11.86 11.86 0 0 0-2.26 10.12 40.77 40.77 0 0 0 2.77 7.32 61 61 0 0 1 4.42 13.76l5.21-.94a34.64 34.64 0 0 0 7.68 6.37 12.44 12.44 0 0 0 9.63 1.37 12.17 12.17 0 0 0 7.41-6.91 33.37 33.37 0 0 0 2.7-10.91c0-.17 0-.62.08-.74.31-.31.45.13.79.41a16.73 16.73 0 0 0 6.75 3.31 9.93 9.93 0 0 0 7.7-1.09 11.59 11.59 0 0 0 4.63-8.82c.37-5-1-10.53-3-15.18s-3.72-8.69-6.3-13.66c-4 1-9.56 2.93-13.58 4l1.36 12a55.17 55.17 0 0 0-11 1.75c-2.18.65-4.34 1.58-6.61 1.51a9.74 9.74 0 0 1-6.27-2.88 19.26 19.26 0 0 1-3.94-5.83Z"/><path class="cls-15" d="m1056.8 82.87-5.41-15.73a.49.49 0 0 0-.36-.31.45.45 0 0 0-.45.17l-5.72 7.16a.49.49 0 0 0-.08.45l2.42 7.26a.5.5 0 0 0 .38.32l8.71 1.3h.07a.47.47 0 0 0 .44-.62Z"/><path d="M1021.62 82.14a.48.48 0 0 0-.44-.36l-6.09-.28a.53.53 0 0 0-.4.19.49.49 0 0 0-.07.44l2.67 7.87a.46.46 0 0 0 .32.3.3.3 0 0 0 .13 0 .43.43 0 0 0 .29-.1l4.36-3.43a.47.47 0 0 0 .17-.47Z" style="fill:#6ea2ff"/><rect class="cls-4" x="1021.16" y="73.12" width="26.5" height="18.94" rx=".7" transform="rotate(-18.35 1034.4 82.58)"/><path class="cls-33" d="M1026.93 76a.54.54 0 0 0-.77.24c-.53 1.21-2.9 1.55-3.9 0-.87-1.32-1.21-3.93.67-4.82a1.44 1.44 0 0 1 1.44.07.52.52 0 0 0 .73-.17 2 2 0 0 1 2.67-.75.33.33 0 0 0 .51-.21 1.49 1.49 0 0 1 .73-1 2.37 2.37 0 0 1 2.36.05c1.58 1.18 3.26 1.72 3.1 3.42a2 2 0 0 1-1.52 1.61 2.67 2.67 0 0 1-1.57-.11.51.51 0 0 0-.69.37 1.93 1.93 0 0 1-1.38 1.42 3 3 0 0 1-2.38-.12Z"/><path class="cls-14" d="M1026.32 76.27a.49.49 0 0 1-.42-.24 15.54 15.54 0 0 1-1.57-4.06.47.47 0 1 1 .92-.21 14.09 14.09 0 0 0 1.48 3.8.48.48 0 0 1-.18.64.43.43 0 0 1-.23.07Zm4.43-1.59a.49.49 0 0 1-.34-.14 16.85 16.85 0 0 1-2.57-3.55.47.47 0 0 1 .84-.44 15.39 15.39 0 0 0 2.41 3.33.48.48 0 0 1 0 .67.46.46 0 0 1-.34.13Z"/><path class="cls-15" d="M1026.83 84.84a.64.64 0 0 1-.33-.08.77.77 0 0 1-.38-.43l-1.16-3.5a.75.75 0 0 1 0-.57.79.79 0 0 1 .44-.38l14.39-4.77a.75.75 0 0 1 .57 0 .73.73 0 0 1 .37.44l1.17 3.5a.75.75 0 0 1-.48.94l-14.39 4.77a.67.67 0 0 1-.2.08Zm-.91-4.12 1 3.13 14-4.65-1-3.13Zm3.8 8.55a1.78 1.78 0 1 1 1.78-1.77 1.78 1.78 0 0 1-1.78 1.77Zm0-2.61a.84.84 0 0 0-.83.84.83.83 0 0 0 .83.83.84.84 0 0 0 .84-.83.85.85 0 0 0-.84-.84Zm5.69.74a1.78 1.78 0 1 1 1.77-1.77 1.77 1.77 0 0 1-1.77 1.77Zm0-2.61a.84.84 0 0 0-.84.84.84.84 0 1 0 .84-.84Zm5.59.78a1.78 1.78 0 1 1 1.78-1.78 1.78 1.78 0 0 1-1.78 1.78Zm0-2.61a.83.83 0 0 0-.83.83.84.84 0 0 0 .83.84.85.85 0 0 0 .84-.84.84.84 0 0 0-.84-.79Z"/><path class="cls-4" d="M1069.73 30.7a.47.47 0 0 0-.59-.31 21.08 21.08 0 0 0-6.38 2.87 8 8 0 0 0-3.48 6.13 5.35 5.35 0 0 0 .2 1.42 10.44 10.44 0 0 0-5.31 10.34.46.46 0 0 0 .46.4h.08a.47.47 0 0 0 .39-.54 9.47 9.47 0 0 1 4.71-9.31 4.75 4.75 0 0 0 4 2.91 2.7 2.7 0 0 0 2.52-1.15 2.07 2.07 0 0 0 .11-1.84 2.71 2.71 0 0 0-1.17-1.41 4.55 4.55 0 0 0-3.31-.31 8.44 8.44 0 0 0-1.57.5 4.86 4.86 0 0 1-.11-1 7 7 0 0 1 3.09-5.38 20 20 0 0 1 6.1-2.73.46.46 0 0 0 .26-.59Zm-7.63 10.12a3.64 3.64 0 0 1 2.64.21 1.79 1.79 0 0 1 .77.92 1.21 1.21 0 0 1 0 1 1.81 1.81 0 0 1-1.66.69 3.91 3.91 0 0 1-3.16-2.38 8.18 8.18 0 0 1 1.41-.44Zm-18.46-5.93 1.27-2.78a.47.47 0 0 0-.23-.63.48.48 0 0 0-.63.24l-1.2 2.63-2.35-1.63a.47.47 0 1 0-.54.78l2.49 1.72-1.37 3a.46.46 0 0 0 .23.62.45.45 0 0 0 .2 0 .47.47 0 0 0 .43-.27l1.3-2.86 2.59 1.79a.44.44 0 0 0 .27.09.47.47 0 0 0 .27-.86Z"/><path class="cls-24" d="m1198.74 146.34 50.82 7.41-8.28-29.14-42.36-5.11-.18 26.84z"/><path class="cls-6" d="M1216.22 83.16s4.07 5 9.23.47c0 0 12.56-1.4 15.92 6.76 2.22 5.38-2.27 13.82-5.58 18.93-1.7 2.63-3.09 4.38-3.09 4.38l4.51 15.76h-1.1l-32.61-.35-2.76-10.79s-12 4.67-13.32-9 1.5-28.43 1.5-28.43l14.76.86-.34 5.23-.42 1.87s-.05-8.46 13.3-5.69Z"/><path class="cls-19" d="M1218 123.35c-6.83 0-13.74-3-19.79-6.14a.48.48 0 0 1-.2-.64.47.47 0 0 1 .63-.2c7.16 3.69 15.53 7.25 23.39 5.65 4.35-.89 7.43-3.32 10.3-8.14a.47.47 0 0 1 .81.48c-3 5-6.35 7.65-10.92 8.58a21.48 21.48 0 0 1-4.22.41Z"/><path class="cls-19" d="M1203.44 119.49a.38.38 0 0 1-.21 0 .47.47 0 0 1-.22-.63l5.91-11.88a.47.47 0 0 1 .63-.22.48.48 0 0 1 .22.64l-5.91 11.88a.46.46 0 0 1-.42.21Z"/><path class="cls-19" d="m1216.82 109.09-13-3.44-.65-23.6a.47.47 0 0 1 .46-.48.47.47 0 0 1 .47.46l.63 22.89 11.55 3.06 5.3-10.59a.47.47 0 1 1 .84.42Z"/><path class="cls-19" d="m1203.67 87.92-16.12-.9a.48.48 0 0 1-.44-.5.46.46 0 0 1 .5-.44l16.11.9a.48.48 0 0 1 .45.5.47.47 0 0 1-.5.44Z"/><path class="cls-34" d="m1203 107.77-3.87 7.46s-18.35-11.68-20.7-13.83a2.68 2.68 0 0 1 2.93-2.83c1.28.07 8.06 3.8 8.06 3.8a1.71 1.71 0 0 0 2.66-1.12c.34-1.14.53-2.31.92-3.73.31-1.15 2.27-1.69 2.7-.17l1.63 6.63Z"/><path class="cls-5" d="M1185.19 106.25a.53.53 0 0 1-.27-.08l-6.47-4.6a.47.47 0 1 1 .55-.77l6.47 4.6a.48.48 0 0 1 .11.66.51.51 0 0 1-.39.19Z"/><rect class="cls-4" x="1155.78" y="73.44" width="36.19" height="25.85" rx=".7" transform="rotate(-6.67 1173.264 86.363)"/><path class="cls-15" d="M1161.64 88.72a.47.47 0 0 1-.47-.41.47.47 0 0 1 .41-.53l24.56-2.87a.47.47 0 0 1 .52.42.46.46 0 0 1-.41.52l-24.56 2.87Zm.55 5.44a.47.47 0 0 1-.47-.41.48.48 0 0 1 .41-.53l24.56-2.87a.49.49 0 0 1 .53.42.49.49 0 0 1-.42.52l-24.56 2.87Z"/><path class="cls-19" d="M1198.48 117.2a.42.42 0 0 1-.22 0 .48.48 0 0 1-.21-.63l5.76-11.52a.47.47 0 0 1 .85.42l-5.76 11.52a.47.47 0 0 1-.42.21Z"/><path class="cls-34" d="M1216 65s-.91 6.34-1 7.84 1.76 6.44 1.76 6.44l-.57 3.92.74.68a6.09 6.09 0 0 0 7.63.46l.55-.39.62-7.1.88-1.13a6.24 6.24 0 0 0 3.51-1.52 2.75 2.75 0 0 0 .41-3.1 2.68 2.68 0 0 0-2.62-.92l-1-5.86-5.61-1.93Z"/><circle class="cls-5" cx="1218.54" cy="67.82" r=".8"/><circle class="cls-5" cx="1222.64" cy="68.23" r=".8"/><path class="cls-29" d="M1215 66a5.26 5.26 0 0 0 3.17-.72 16.76 16.76 0 0 0 1.45-1.24 4.26 4.26 0 0 0 2.63 1 4.17 4.17 0 0 0 2.6-1 3.06 3.06 0 0 0 .87 1.63 2.72 2.72 0 0 0 1.63.66 14.43 14.43 0 0 1-1.57 5.06c-.36.58-1.48.5-2.29.26-2.4-.72-5.23-1.17-7.56-.17-1.3.56-1.38 2.24-1.29 3.49a6.08 6.08 0 0 0 9.07 4.72c2.82-1.53 3.12-4.32 3.79-7.15.54-2.28 1.68-4.2 2.14-6.5.39-1.77-.12-3.68-2.1-4.17a2.18 2.18 0 0 0-1.38.12 3.43 3.43 0 0 0-1.53-2.83 4.32 4.32 0 0 0-2.63-.47 4.05 4.05 0 0 0-2.26 1 4.84 4.84 0 0 0-2.2-1.59 5 5 0 0 0-5.34 1.94 3.92 3.92 0 0 0-.3 3.36 4 4 0 0 0 3.1 2.6Z"/><path class="cls-2" d="M1218.25 73.9a28.07 28.07 0 0 0 4.12-1.16s.41 2-1.28 2.53a2.11 2.11 0 0 1-2.84-1.37Z"/><path class="cls-19" d="M1221 86.16h-.49a7.39 7.39 0 0 1-4.81-2.81.47.47 0 0 1 .1-.66.48.48 0 0 1 .66.1 6.55 6.55 0 0 0 4.14 2.43 6.05 6.05 0 0 0 4.64-2 .47.47 0 1 1 .65.69 7.19 7.19 0 0 1-4.89 2.25Z"/><path class="cls-2" d="m923.2 63.39-.09-.2c-.19-.41-.39-.81-.59-1.2a.71.71 0 0 0-.41.37l-4.44 9.84c.32.45.64.87 1 1.27a1.27 1.27 0 0 0 .07-.12Z"/><path d="m931.61 87.78-5-9.73a2.12 2.12 0 0 0-.92-1c2.09-2.4.83-8.68-1.77-14.27C921 56.51 916.35 51 913 52.51s-2.07 8.7.86 15c2.59 5.56 6.56 10.55 9.74 10.55h.28a1.48 1.48 0 0 0 0 .47 2.91 2.91 0 0 0 .26.81l4.63 9.88a1.57 1.57 0 0 0 2.1.72 1.53 1.53 0 0 0 .79-.9 1.55 1.55 0 0 0-.05-1.26Zm-16-21.09c-3.11-6.67-3.13-11.84-1.77-12.47a.92.92 0 0 1 .38-.08c1.61 0 5.19 3.31 8 9.45 3.1 6.67 3.12 11.84 1.76 12.48s-5.27-2.71-8.38-9.38Z" style="fill:#c5dafd"/><path class="cls-9" d="M980.81 117.05c-2.21-1.22-6.78-3.6-7.17-3.42-2 .94-11.08 4.61-14 5.6a43.48 43.48 0 0 0-.5 13.13l13.06 9.78Z"/><path class="cls-26" d="M962.28 89.44a1.27 1.27 0 0 1-.62-1 9.4 9.4 0 0 0-1.7-5.76c-.56-.72-1.26-1.37-1.81-2.1-.38-.51-.67-1.1-1.09-1.59a1.42 1.42 0 0 0-1.09-.59 1.4 1.4 0 0 0-1 .84 3.17 3.17 0 0 0 .12 2.52c.19.46.44.89.66 1.33s.56.93.47 1.36a.84.84 0 0 1-1.25.42 1.81 1.81 0 0 1-.69-1.22 19.94 19.94 0 0 1-.33-2.17 10.15 10.15 0 0 0-.12-1.46 1.43 1.43 0 0 0-1.86-1.19c-.65.26-.85 1-.95 1.67 0 0 0 .11-.07 0a1.27 1.27 0 0 0-1.63.16 2.19 2.19 0 0 0-.5 1.34 2.12 2.12 0 0 0 0 .37 1.05 1.05 0 0 0-1.61.24 3.78 3.78 0 0 0-.59 1.62 9.2 9.2 0 0 0 2.19 6.77c1.47 1.91 3 3.16 4.53 4.93 6.22 7 16.3 16.72 27.3 21.66l5-14.63a177.68 177.68 0 0 1-23.36-13.52Z"/><path class="cls-5" d="M952.07 86.23a.47.47 0 0 1-.43-.28 13 13 0 0 1-1.12-5.8.46.46 0 0 1 .49-.45.48.48 0 0 1 .46.49 11.92 11.92 0 0 0 1 5.37.47.47 0 0 1-.23.63.45.45 0 0 1-.17.04Zm-2.61 1.17a.46.46 0 0 1-.43-.3 11.55 11.55 0 0 1-.81-5 .46.46 0 0 1 .5-.43.46.46 0 0 1 .44.5 10.57 10.57 0 0 0 .74 4.62.47.47 0 0 1-.26.61.39.39 0 0 1-.18 0Z"/><path class="cls-13" d="M1000.14 108.62c-.57-3.46-2.48-3.55-4.77-3.48a11.8 11.8 0 0 0-1.82 9c4.51-.98 7.04-2.75 6.59-5.52Zm12.73 5.02a7.14 7.14 0 0 0 3.78-5.82 10.37 10.37 0 0 1-2.42.26 9.37 9.37 0 0 1-5.45-2.17 17.78 17.78 0 0 0-1.6 1.46c-2.99 3.09-.96 9.06 5.69 6.27Zm-8.97-10.32a5.36 5.36 0 0 0 1.76-1 27.42 27.42 0 0 1-1.61-3c-.2-.42-4 1.52-4.4 1.74a13.79 13.79 0 0 0-1.87 1.37 7.73 7.73 0 0 0 6.12.89Zm7.33 33.68c4.82-.48 6.46-3.95 5.21-6.36s-4.53-5.31-7.52-4.15c-2 .77-1.35 2.6-2.41 4.92a4.43 4.43 0 0 0 0 3.73q.67.69 1.38 1.38a6.07 6.07 0 0 0 3.34.48Zm-5.59-13.53c.58-2.41-.48-6.65-3.47-8-2-1-2.6.67-4.82 1.45a3.34 3.34 0 0 0-2.2 2.11c.4 1 .83 1.88 1.24 2.82l.6 1.4c.22.2.47.4.74.61 4.05 3.14 7.33 2.02 7.91-.39Zm33.84 1.45c5.21.38 8.3-.39 8.49-3.09.29-4.72-4-3.47-7.23-5-1.93-.87-5.11-2.8-7.43.1s.97 7.6 6.17 7.99Zm1.35-31.14c-2.7-.29-7.13 2.6-6.26 5.78s4.24 3.47 8.29 2.22 4.92-7.23-2.03-8Zm-13.4 34.42c-4 1.73-4.15 8 3 7.9.11-.22.23-.43.33-.66a32.3 32.3 0 0 0 2.32-8.41 10.76 10.76 0 0 0-5.65 1.17Zm-5.43-15.72c.68 3.66 6.08.87 9.64.19 3.19-.57 7.72 1.55 7.52-1.54s-3.41-5.93-7.37-6.61v.3c-1.91.17-3.83.35-5.73.62-2.64 1.56-4.51 4.37-4.06 7.04Zm25.29-8.29c-2 .77-1.44 2.6-2.41 4.92-1.25 2.7-.19 6.07 4.73 5.59a7.74 7.74 0 0 0 3.64-1.21 37.68 37.68 0 0 0-2-8.87 4.65 4.65 0 0 0-3.96-.43Zm-23.96 38.22a11.66 11.66 0 0 0 4.11-2.35c0-.19-.06-.38-.11-.58-.77-3.67-6.36-4.44-9.64-1.06a18 18 0 0 0-2.62 3.29 11.83 11.83 0 0 0 8.26.7Z"/><path class="cls-14" d="M1036.94 113.51a.48.48 0 0 1-.44-.29l-5.27-12.84a.48.48 0 0 1 .26-.62.49.49 0 0 1 .62.26l5.27 12.84a.49.49 0 0 1-.26.62.57.57 0 0 1-.18.03Z"/><path class="cls-14" d="M1033.66 124.68a.48.48 0 0 1-.48-.47 165.5 165.5 0 0 0-1.77-22.25.47.47 0 1 1 .93-.14 167.42 167.42 0 0 1 1.79 22.39.47.47 0 0 1-.47.47Zm-15.99-3.36a.44.44 0 0 1-.35-.16l-9.6-10.68a.47.47 0 1 1 .7-.63l9.6 10.68a.47.47 0 0 1 0 .67.49.49 0 0 1-.35.12Z"/><path class="cls-33" d="M1014.31 80.78s9 8.49 2.38 12.49l-.35.17.61 2.66a54.35 54.35 0 0 1 9-1s2.82-2.46 5.79-4.7c.83-.63 2.47-1.28 3.36-.21.51.63-.07 1.51-.41 2.2 1.49-.4 7.54-2.4 7.54-2.4a2.48 2.48 0 0 1 0 2c-1 1.48-4.67 3.43-9.57 7.59-.47.4-1 .77-.94 1.39 0 1.54.22 3.65.17 3.85l-11.45 2c-.32.06-.83.59-1.12.76a9.42 9.42 0 0 1-3.18 1.11c-5.63.86-10.9-4.35-12.34-9.39 0 0 1.86-.69 6.37-1.92l-1.09-4.22s-5.1.15-3.57-4.51c-.03.01 7.96.35 8.8-7.87Z"/><path class="cls-14" d="M1013.87 87.16a.65.65 0 0 1-.19 0 .48.48 0 0 1-.24-.62 2.05 2.05 0 0 1 1.14-1.18 2.24 2.24 0 0 1 1.49 0 .47.47 0 1 1-.33.88 1.28 1.28 0 0 0-.82 0 1.14 1.14 0 0 0-.62.68.47.47 0 0 1-.43.24Zm1.69 3.36a3.32 3.32 0 0 1-1.24-.23.47.47 0 0 1-.27-.61.48.48 0 0 1 .61-.27 2.65 2.65 0 0 0 2.56-.42.47.47 0 1 1 .61.72 3.56 3.56 0 0 1-2.27.81Zm-1.42 4.17a8.91 8.91 0 0 1-1-.07.47.47 0 0 1-.41-.52.46.46 0 0 1 .53-.41 7.55 7.55 0 0 0 2.76-.18.46.46 0 0 1 .57.33.47.47 0 0 1-.34.58 8.13 8.13 0 0 1-2.11.27Z"/><path d="M1014.31 80.78s-.64 9.14-7.46 8.19a1.44 1.44 0 0 0-1.63 1.65c.14.94.76 1.95 2.59 2.43 0 0 .33 1.5-.43 2.16a2.31 2.31 0 0 1-3 .23s1.38 3.5-1 4.62a3.73 3.73 0 0 1-4.73-1.35 3.33 3.33 0 0 1-.53-2.89c.47-1.33 2-1.87 3.24-2.1 0 0-1.51-2.6-.08-4a3.24 3.24 0 0 1 3.08-.93s-3.37-5.11 2.13-8c3.79-2.02 7.82-.01 7.82-.01Z"/><path class="cls-14" d="M1032.43 95.42a.44.44 0 0 1-.34-.14.47.47 0 0 1 0-.67 22.87 22.87 0 0 0 2.16-2.35.49.49 0 0 1 .67-.07.47.47 0 0 1 .07.66 26 26 0 0 1-2.25 2.45.49.49 0 0 1-.31.12Zm-26.81 39.66a.46.46 0 0 1-.37-.18L997 124.18a.47.47 0 0 1 .75-.57l8.27 10.71a.47.47 0 0 1-.08.66.46.46 0 0 1-.32.1Zm11.58-10.28h-.08a.47.47 0 0 1-.39-.54c0-.09 1.41-8.91 2.9-17.55s5.6-11.66 5.77-11.79a.47.47 0 0 1 .66.1.48.48 0 0 1-.1.66s-4 3-5.4 11.19c-1.49 8.63-2.88 17.45-2.9 17.54a.46.46 0 0 1-.46.39Z"/><path class="cls-31" d="m1144.64 71.08.6-.76-19.15-9.39a6.58 6.58 0 0 0-1 .46v.08Zm-21.66-7.49-.14.29 19.81 9.72.6-.76-19.83-9.72-.44.47z"/><path class="cls-15" d="m1191 77.16-4.87-5.24-1.17.14 5 5.33-4.71.56-5-5.34-1.16.13 5 5.34-5 .58-5-5.33-1.16.13 5 5.34-5 .59-5-5.34-1.16.14 5 5.33-5.31.62s0-.07-.06-.11l-4.87-5.23-1.16.14 5 5.34-5.28.61-5-5.33a.65.65 0 0 0-.56.72v.06l4.36 4.69-3.76.44.11.94 35.94-4.21Z"/><path class="cls-21" d="m1224.65 136.87-9.56-.83a.48.48 0 0 0-.51.43.47.47 0 0 0 .43.51l4.7.41 3.11 12.46 1 .15-3.12-12.53 3.86.34a.48.48 0 0 0 .47-.43.47.47 0 0 0-.38-.51Z"/><path class="cls-34" d="M1201.19 69.54a17.12 17.12 0 0 0-7.71-10.09 2 2 0 0 0-2 .21 2.28 2.28 0 0 0-.44 1.8h-.29a4.78 4.78 0 0 0-2.69.37 1.8 1.8 0 0 0-.94 1.83 1.76 1.76 0 0 0 1.6 1.29 6.27 6.27 0 0 1 1.52.37c.34.15.67.41.1.48a3.44 3.44 0 0 0-1.47.46 1.85 1.85 0 0 0-.63 2.07 2.05 2.05 0 0 0 1.65 1.21 18.87 18.87 0 0 0 2.13.11 3.27 3.27 0 0 1 2.46 1.14 2 2 0 0 1 .33 2.07c-1 1.9-3.75-.54-4.75-1.26a1.69 1.69 0 0 0-2 .12c-.78.79-.33 2.31.24 3.08a8 8 0 0 0 1.43 1.48 12.64 12.64 0 0 0 2 1.34s.75.87.63 3.49l9.92.6c-.28-6.86-.41-9.2-1.09-12.17Z"/><path class="cls-5" d="M1200.54 69.73a9.06 9.06 0 0 0-3.39-3.68.56.56 0 0 0 0-.12 11.83 11.83 0 0 0-5.79-5.11.48.48 0 0 0-.61.3.47.47 0 0 0 .29.61 11.19 11.19 0 0 1 4.6 3.62 10.38 10.38 0 0 0-6.4.07.48.48 0 0 0-.32.6.49.49 0 0 0 .6.33c4.43-1.35 8.24.08 10.21 3.83a.48.48 0 0 0 .43.26.46.46 0 0 0 .22-.06.47.47 0 0 0 .16-.65Zm-7.7 8.56h-.09a7.85 7.85 0 0 1-2.2-.8.47.47 0 0 1-.2-.65.49.49 0 0 1 .66-.2 6.86 6.86 0 0 0 1.93.7.48.48 0 0 1-.1 1Z"/></g></g></svg>